M48
; DRILL file {KiCad (5.1.9-0-10_14)} date Tuesday, March 15, 2022 at 11:34:31 AM
; FORMAT={2:4/ absolute / inch / suppress leading zeros}
; #@! TF.CreationDate,2022-03-15T11:34:31-06:00
; #@! TF.GenerationSoftware,Kicad,Pcbnew,(5.1.9-0-10_14)
FMAT,2
INCH,TZ
T1C0.0157
T2C0.0197
T3C0.0315
T4C0.0394
T5C0.0433
T6C0.0591
T7C0.0787
T8C0.0984
T9C0.0433
T10C0.1260
%
G90
G05
T1
X56102Y-41024
X56102Y-41496
X56102Y-41969
X59173Y-44882
X59331Y-41457
X59606Y-44488
X59646Y-38583
X59646Y-39370
X59646Y-41063
X60079Y-38189
X60079Y-44449
X60276Y-44882
X60984Y-44803
X61181Y-43071
X62362Y-44961
X64370Y-29094
X65157Y-46614
T2
X46781Y-21142
X46781Y-50748
X46998Y-20620
X46998Y-21664
X46998Y-50226
X46998Y-51270
X47520Y-20404
X47520Y-21880
X47520Y-50010
X47520Y-51486
X48042Y-20620
X48042Y-21664
X48042Y-50226
X48042Y-51270
X48258Y-21142
X48258Y-50748
X64577Y-21142
X64577Y-50748
X64793Y-20620
X64793Y-21664
X64793Y-50226
X64793Y-51270
X65315Y-20404
X65315Y-21880
X65315Y-50010
X65315Y-51486
X65837Y-20620
X65837Y-21664
X65837Y-50226
X65837Y-51270
X66053Y-21142
X66053Y-50748
T3
X58583Y-48228
X58583Y-49016
X58583Y-49803
T4
X47559Y-43228
X47559Y-44228
X47559Y-45228
X47559Y-46228
X47559Y-47228
X47559Y-48228
X47953Y-29819
X47953Y-30819
X47953Y-31819
X47953Y-32819
X47953Y-33819
X47953Y-34819
X47953Y-35819
X47953Y-36819
X47953Y-37819
X57921Y-26772
X57921Y-27772
X58921Y-26772
X58921Y-27772
X59921Y-26772
X59921Y-27772
X61654Y-47205
X61654Y-48976
X64213Y-47205
X64213Y-48976
T5
X64685Y-29819
X64685Y-30819
X64685Y-31819
X64685Y-32819
X64685Y-33819
X64685Y-34819
X64685Y-36480
X64685Y-37480
T6
X58583Y-47402
X58583Y-50630
T7
X52756Y-21772
X52756Y-50118
T8
X47520Y-21142
X47520Y-50748
X65315Y-21142
X65315Y-50748
T9
X65685Y-36480
X65685Y-37480
T10
X52756Y-24821
X52756Y-46715
T0
M30
