G04 #@! TF.GenerationSoftware,KiCad,Pcbnew,(5.1.9-0-10_14)*
G04 #@! TF.CreationDate,2022-03-15T11:33:21-06:00*
G04 #@! TF.ProjectId,Full_Res_Board,46756c6c-5f52-4657-935f-426f6172642e,rev?*
G04 #@! TF.SameCoordinates,Original*
G04 #@! TF.FileFunction,Copper,L2,Bot*
G04 #@! TF.FilePolarity,Positive*
%FSLAX46Y46*%
G04 Gerber Fmt 4.6, Leading zero omitted, Abs format (unit mm)*
G04 Created by KiCad (PCBNEW (5.1.9-0-10_14)) date 2022-03-15 11:33:21*
%MOMM*%
%LPD*%
G01*
G04 APERTURE LIST*
G04 #@! TA.AperFunction,ComponentPad*
%ADD10C,2.200000*%
G04 #@! TD*
G04 #@! TA.AperFunction,ComponentPad*
%ADD11R,2.200000X2.200000*%
G04 #@! TD*
G04 #@! TA.AperFunction,ComponentPad*
%ADD12C,0.800000*%
G04 #@! TD*
G04 #@! TA.AperFunction,ComponentPad*
%ADD13C,5.000000*%
G04 #@! TD*
G04 #@! TA.AperFunction,ComponentPad*
%ADD14R,3.500000X3.500000*%
G04 #@! TD*
G04 #@! TA.AperFunction,ComponentPad*
%ADD15C,3.500000*%
G04 #@! TD*
G04 #@! TA.AperFunction,ComponentPad*
%ADD16O,1.700000X1.700000*%
G04 #@! TD*
G04 #@! TA.AperFunction,ComponentPad*
%ADD17R,1.700000X1.700000*%
G04 #@! TD*
G04 #@! TA.AperFunction,ComponentPad*
%ADD18O,3.500000X2.200000*%
G04 #@! TD*
G04 #@! TA.AperFunction,ComponentPad*
%ADD19O,2.500000X1.500000*%
G04 #@! TD*
G04 #@! TA.AperFunction,ComponentPad*
%ADD20R,2.500000X1.500000*%
G04 #@! TD*
G04 #@! TA.AperFunction,ComponentPad*
%ADD21C,1.700000*%
G04 #@! TD*
G04 #@! TA.AperFunction,ViaPad*
%ADD22C,0.800000*%
G04 #@! TD*
G04 #@! TA.AperFunction,Conductor*
%ADD23C,0.250000*%
G04 #@! TD*
G04 #@! TA.AperFunction,Conductor*
%ADD24C,0.254000*%
G04 #@! TD*
G04 #@! TA.AperFunction,Conductor*
%ADD25C,0.100000*%
G04 #@! TD*
G04 APERTURE END LIST*
D10*
X164300000Y-75740000D03*
X164300000Y-78280000D03*
X164300000Y-80820000D03*
X164300000Y-83360000D03*
X164300000Y-85900000D03*
D11*
X164300000Y-88440000D03*
D12*
X122025825Y-127574175D03*
X120700000Y-127025000D03*
X119374175Y-127574175D03*
X118825000Y-128900000D03*
X119374175Y-130225825D03*
X120700000Y-130775000D03*
X122025825Y-130225825D03*
X122575000Y-128900000D03*
D13*
X120700000Y-128900000D03*
D12*
X122025825Y-52374175D03*
X120700000Y-51825000D03*
X119374175Y-52374175D03*
X118825000Y-53700000D03*
X119374175Y-55025825D03*
X120700000Y-55575000D03*
X122025825Y-55025825D03*
X122575000Y-53700000D03*
D13*
X120700000Y-53700000D03*
D12*
X167225825Y-52374175D03*
X165900000Y-51825000D03*
X164574175Y-52374175D03*
X164025000Y-53700000D03*
X164574175Y-55025825D03*
X165900000Y-55575000D03*
X167225825Y-55025825D03*
X167775000Y-53700000D03*
D13*
X165900000Y-53700000D03*
D12*
X167225825Y-127574175D03*
X165900000Y-127025000D03*
X164574175Y-127574175D03*
X164025000Y-128900000D03*
X164574175Y-130225825D03*
X165900000Y-130775000D03*
X167225825Y-130225825D03*
X167775000Y-128900000D03*
D13*
X165900000Y-128900000D03*
D14*
X134000000Y-127300000D03*
D15*
X134000000Y-55300000D03*
D16*
X121800000Y-75740000D03*
X121800000Y-78280000D03*
X121800000Y-80820000D03*
X121800000Y-83360000D03*
X121800000Y-85900000D03*
X121800000Y-88440000D03*
X121800000Y-90980000D03*
X121800000Y-93520000D03*
D17*
X121800000Y-96060000D03*
D16*
X120800000Y-109800000D03*
X120800000Y-112340000D03*
X120800000Y-114880000D03*
X120800000Y-117420000D03*
X120800000Y-119960000D03*
D17*
X120800000Y-122500000D03*
D18*
X148800000Y-120400000D03*
X148800000Y-128600000D03*
D19*
X148800000Y-122500000D03*
X148800000Y-124500000D03*
D20*
X148800000Y-126500000D03*
D21*
X163100000Y-124400000D03*
X156600000Y-124400000D03*
X163100000Y-119900000D03*
X156600000Y-119900000D03*
D16*
X147120000Y-70540000D03*
X147120000Y-68000000D03*
X149660000Y-70540000D03*
X149660000Y-68000000D03*
X152200000Y-70540000D03*
D17*
X152200000Y-68000000D03*
D10*
X164300000Y-92660000D03*
D11*
X164300000Y-95200000D03*
D22*
X151500000Y-104300000D03*
X151500000Y-100000000D03*
X151500000Y-98000000D03*
X150700000Y-105300000D03*
X152600000Y-97000000D03*
X155400000Y-109400000D03*
X165500000Y-118400000D03*
X154900000Y-113800000D03*
X142500000Y-104199998D03*
X142500000Y-105400000D03*
X152600000Y-112900000D03*
X142500000Y-106600000D03*
X151400000Y-113000000D03*
X150300000Y-114000000D03*
X153100000Y-114000000D03*
X163500000Y-73900000D03*
X158400000Y-114200000D03*
D23*
X151500000Y-100000000D02*
X151500000Y-104300000D01*
X150700000Y-98800000D02*
X150700000Y-105300000D01*
X151500000Y-98000000D02*
X150700000Y-98800000D01*
X121800000Y-75740000D02*
X164300000Y-75740000D01*
X145299998Y-104199998D02*
X142500000Y-104199998D01*
X154900000Y-113800000D02*
X145299998Y-104199998D01*
X121800000Y-78280000D02*
X164300000Y-78280000D01*
X145100000Y-105400000D02*
X152600000Y-112900000D01*
X142500000Y-105400000D02*
X145100000Y-105400000D01*
X126880000Y-80820000D02*
X164300000Y-80820000D01*
X121800000Y-85900000D02*
X126880000Y-80820000D01*
X148900000Y-113000000D02*
X151400000Y-113000000D01*
X142500000Y-106600000D02*
X148900000Y-113000000D01*
X126880000Y-83360000D02*
X126870000Y-83370000D01*
X164300000Y-83360000D02*
X126880000Y-83360000D01*
X121800000Y-88440000D02*
X126870000Y-83370000D01*
X147360000Y-114000000D02*
X121800000Y-88440000D01*
X150300000Y-114000000D02*
X147360000Y-114000000D01*
X163100000Y-124000000D02*
X163100000Y-124400000D01*
X153100000Y-114000000D02*
X163100000Y-124000000D01*
X166400000Y-74800000D02*
X165500000Y-73900000D01*
X165500000Y-73900000D02*
X163500000Y-73900000D01*
X166400000Y-89819000D02*
X166400000Y-74800000D01*
X165519000Y-90700000D02*
X166400000Y-89819000D01*
X158700000Y-113900000D02*
X158700000Y-95700000D01*
X163700000Y-90700000D02*
X165519000Y-90700000D01*
X158700000Y-95700000D02*
X163700000Y-90700000D01*
X158400000Y-114200000D02*
X158700000Y-113900000D01*
D24*
X164560913Y-51194745D02*
X164097892Y-51504125D01*
X163704125Y-51897892D01*
X163394745Y-52360913D01*
X163181640Y-52875394D01*
X163073000Y-53421565D01*
X163073000Y-53978435D01*
X163181640Y-54524606D01*
X163394745Y-55039087D01*
X163704125Y-55502108D01*
X164097892Y-55895875D01*
X164560913Y-56205255D01*
X165075394Y-56418360D01*
X165621565Y-56527000D01*
X166178435Y-56527000D01*
X166724606Y-56418360D01*
X167239087Y-56205255D01*
X167702108Y-55895875D01*
X168095875Y-55502108D01*
X168405255Y-55039087D01*
X168448001Y-54935889D01*
X168448000Y-127664109D01*
X168405255Y-127560913D01*
X168095875Y-127097892D01*
X167702108Y-126704125D01*
X167239087Y-126394745D01*
X166724606Y-126181640D01*
X166178435Y-126073000D01*
X165621565Y-126073000D01*
X165075394Y-126181640D01*
X164560913Y-126394745D01*
X164097892Y-126704125D01*
X163704125Y-127097892D01*
X163394745Y-127560913D01*
X163181640Y-128075394D01*
X163073000Y-128621565D01*
X163073000Y-129178435D01*
X163181640Y-129724606D01*
X163394745Y-130239087D01*
X163704125Y-130702108D01*
X164097892Y-131095875D01*
X164560913Y-131405255D01*
X164664109Y-131448000D01*
X121935891Y-131448000D01*
X122039087Y-131405255D01*
X122502108Y-131095875D01*
X122895875Y-130702108D01*
X123205255Y-130239087D01*
X123418360Y-129724606D01*
X123527000Y-129178435D01*
X123527000Y-128621565D01*
X123418360Y-128075394D01*
X123205255Y-127560913D01*
X122895875Y-127097892D01*
X122502108Y-126704125D01*
X122039087Y-126394745D01*
X121524606Y-126181640D01*
X120978435Y-126073000D01*
X120421565Y-126073000D01*
X119875394Y-126181640D01*
X119360913Y-126394745D01*
X118897892Y-126704125D01*
X118504125Y-127097892D01*
X118194745Y-127560913D01*
X118152000Y-127664109D01*
X118152000Y-125550000D01*
X131921418Y-125550000D01*
X131921418Y-129050000D01*
X131927732Y-129114103D01*
X131946430Y-129175743D01*
X131976794Y-129232550D01*
X132017657Y-129282343D01*
X132067450Y-129323206D01*
X132124257Y-129353570D01*
X132185897Y-129372268D01*
X132250000Y-129378582D01*
X135750000Y-129378582D01*
X135814103Y-129372268D01*
X135875743Y-129353570D01*
X135932550Y-129323206D01*
X135982343Y-129282343D01*
X136023206Y-129232550D01*
X136053570Y-129175743D01*
X136072268Y-129114103D01*
X136078582Y-129050000D01*
X136078582Y-128600000D01*
X146716096Y-128600000D01*
X146743648Y-128879741D01*
X146825245Y-129148731D01*
X146957752Y-129396634D01*
X147136077Y-129613923D01*
X147353366Y-129792248D01*
X147601269Y-129924755D01*
X147870259Y-130006352D01*
X148079902Y-130027000D01*
X149520098Y-130027000D01*
X149729741Y-130006352D01*
X149998731Y-129924755D01*
X150246634Y-129792248D01*
X150463923Y-129613923D01*
X150642248Y-129396634D01*
X150774755Y-129148731D01*
X150856352Y-128879741D01*
X150883904Y-128600000D01*
X150856352Y-128320259D01*
X150774755Y-128051269D01*
X150642248Y-127803366D01*
X150463923Y-127586077D01*
X150304550Y-127455283D01*
X150323206Y-127432550D01*
X150353570Y-127375743D01*
X150372268Y-127314103D01*
X150378582Y-127250000D01*
X150378582Y-125750000D01*
X150372268Y-125685897D01*
X150353570Y-125624257D01*
X150323206Y-125567450D01*
X150282343Y-125517657D01*
X150258840Y-125498369D01*
X150369145Y-125389540D01*
X150522142Y-125163868D01*
X150628173Y-124912684D01*
X150642318Y-124841185D01*
X150519656Y-124627000D01*
X148927000Y-124627000D01*
X148927000Y-124647000D01*
X148673000Y-124647000D01*
X148673000Y-124627000D01*
X147080344Y-124627000D01*
X146957682Y-124841185D01*
X146971827Y-124912684D01*
X147077858Y-125163868D01*
X147230855Y-125389540D01*
X147341160Y-125498369D01*
X147317657Y-125517657D01*
X147276794Y-125567450D01*
X147246430Y-125624257D01*
X147227732Y-125685897D01*
X147221418Y-125750000D01*
X147221418Y-127250000D01*
X147227732Y-127314103D01*
X147246430Y-127375743D01*
X147276794Y-127432550D01*
X147295450Y-127455283D01*
X147136077Y-127586077D01*
X146957752Y-127803366D01*
X146825245Y-128051269D01*
X146743648Y-128320259D01*
X146716096Y-128600000D01*
X136078582Y-128600000D01*
X136078582Y-125550000D01*
X136072268Y-125485897D01*
X136053570Y-125424257D01*
X136023206Y-125367450D01*
X135982343Y-125317657D01*
X135932550Y-125276794D01*
X135875743Y-125246430D01*
X135814103Y-125227732D01*
X135750000Y-125221418D01*
X132250000Y-125221418D01*
X132185897Y-125227732D01*
X132124257Y-125246430D01*
X132067450Y-125276794D01*
X132017657Y-125317657D01*
X131976794Y-125367450D01*
X131946430Y-125424257D01*
X131927732Y-125485897D01*
X131921418Y-125550000D01*
X118152000Y-125550000D01*
X118152000Y-121650000D01*
X119621418Y-121650000D01*
X119621418Y-123350000D01*
X119627732Y-123414103D01*
X119646430Y-123475743D01*
X119676794Y-123532550D01*
X119717657Y-123582343D01*
X119767450Y-123623206D01*
X119824257Y-123653570D01*
X119885897Y-123672268D01*
X119950000Y-123678582D01*
X121650000Y-123678582D01*
X121714103Y-123672268D01*
X121775743Y-123653570D01*
X121832550Y-123623206D01*
X121882343Y-123582343D01*
X121923206Y-123532550D01*
X121953570Y-123475743D01*
X121972268Y-123414103D01*
X121978582Y-123350000D01*
X121978582Y-121650000D01*
X121972268Y-121585897D01*
X121953570Y-121524257D01*
X121923206Y-121467450D01*
X121882343Y-121417657D01*
X121832550Y-121376794D01*
X121775743Y-121346430D01*
X121714103Y-121327732D01*
X121650000Y-121321418D01*
X119950000Y-121321418D01*
X119885897Y-121327732D01*
X119824257Y-121346430D01*
X119767450Y-121376794D01*
X119717657Y-121417657D01*
X119676794Y-121467450D01*
X119646430Y-121524257D01*
X119627732Y-121585897D01*
X119621418Y-121650000D01*
X118152000Y-121650000D01*
X118152000Y-119844076D01*
X119623000Y-119844076D01*
X119623000Y-120075924D01*
X119668231Y-120303318D01*
X119756956Y-120517519D01*
X119885764Y-120710294D01*
X120049706Y-120874236D01*
X120242481Y-121003044D01*
X120456682Y-121091769D01*
X120684076Y-121137000D01*
X120915924Y-121137000D01*
X121143318Y-121091769D01*
X121357519Y-121003044D01*
X121550294Y-120874236D01*
X121714236Y-120710294D01*
X121843044Y-120517519D01*
X121931769Y-120303318D01*
X121977000Y-120075924D01*
X121977000Y-119844076D01*
X121931769Y-119616682D01*
X121843044Y-119402481D01*
X121714236Y-119209706D01*
X121550294Y-119045764D01*
X121357519Y-118916956D01*
X121143318Y-118828231D01*
X120915924Y-118783000D01*
X120684076Y-118783000D01*
X120456682Y-118828231D01*
X120242481Y-118916956D01*
X120049706Y-119045764D01*
X119885764Y-119209706D01*
X119756956Y-119402481D01*
X119668231Y-119616682D01*
X119623000Y-119844076D01*
X118152000Y-119844076D01*
X118152000Y-117304076D01*
X119623000Y-117304076D01*
X119623000Y-117535924D01*
X119668231Y-117763318D01*
X119756956Y-117977519D01*
X119885764Y-118170294D01*
X120049706Y-118334236D01*
X120242481Y-118463044D01*
X120456682Y-118551769D01*
X120684076Y-118597000D01*
X120915924Y-118597000D01*
X121143318Y-118551769D01*
X121352297Y-118465207D01*
X132073000Y-118465207D01*
X132073000Y-118844793D01*
X132147053Y-119217085D01*
X132292315Y-119567777D01*
X132503201Y-119883391D01*
X132771609Y-120151799D01*
X133087223Y-120362685D01*
X133437915Y-120507947D01*
X133810207Y-120582000D01*
X134189793Y-120582000D01*
X134562085Y-120507947D01*
X134822691Y-120400000D01*
X146716096Y-120400000D01*
X146743648Y-120679741D01*
X146825245Y-120948731D01*
X146957752Y-121196634D01*
X147136077Y-121413923D01*
X147353366Y-121592248D01*
X147568376Y-121707174D01*
X147534761Y-121734761D01*
X147400174Y-121898756D01*
X147300167Y-122085856D01*
X147238583Y-122288871D01*
X147217789Y-122500000D01*
X147238583Y-122711129D01*
X147300167Y-122914144D01*
X147400174Y-123101244D01*
X147534761Y-123265239D01*
X147589804Y-123310412D01*
X147424939Y-123418972D01*
X147230855Y-123610460D01*
X147077858Y-123836132D01*
X146971827Y-124087316D01*
X146957682Y-124158815D01*
X147080344Y-124373000D01*
X148673000Y-124373000D01*
X148673000Y-124353000D01*
X148927000Y-124353000D01*
X148927000Y-124373000D01*
X150519656Y-124373000D01*
X150570582Y-124284076D01*
X155423000Y-124284076D01*
X155423000Y-124515924D01*
X155468231Y-124743318D01*
X155556956Y-124957519D01*
X155685764Y-125150294D01*
X155849706Y-125314236D01*
X156042481Y-125443044D01*
X156256682Y-125531769D01*
X156484076Y-125577000D01*
X156715924Y-125577000D01*
X156943318Y-125531769D01*
X157157519Y-125443044D01*
X157350294Y-125314236D01*
X157514236Y-125150294D01*
X157643044Y-124957519D01*
X157731769Y-124743318D01*
X157777000Y-124515924D01*
X157777000Y-124284076D01*
X157731769Y-124056682D01*
X157643044Y-123842481D01*
X157514236Y-123649706D01*
X157350294Y-123485764D01*
X157157519Y-123356956D01*
X156943318Y-123268231D01*
X156715924Y-123223000D01*
X156484076Y-123223000D01*
X156256682Y-123268231D01*
X156042481Y-123356956D01*
X155849706Y-123485764D01*
X155685764Y-123649706D01*
X155556956Y-123842481D01*
X155468231Y-124056682D01*
X155423000Y-124284076D01*
X150570582Y-124284076D01*
X150642318Y-124158815D01*
X150628173Y-124087316D01*
X150522142Y-123836132D01*
X150369145Y-123610460D01*
X150175061Y-123418972D01*
X150010196Y-123310412D01*
X150065239Y-123265239D01*
X150199826Y-123101244D01*
X150299833Y-122914144D01*
X150361417Y-122711129D01*
X150382211Y-122500000D01*
X150361417Y-122288871D01*
X150299833Y-122085856D01*
X150199826Y-121898756D01*
X150065239Y-121734761D01*
X150031624Y-121707174D01*
X150246634Y-121592248D01*
X150463923Y-121413923D01*
X150642248Y-121196634D01*
X150774755Y-120948731D01*
X150856352Y-120679741D01*
X150883904Y-120400000D01*
X150856352Y-120120259D01*
X150774755Y-119851269D01*
X150738840Y-119784076D01*
X155423000Y-119784076D01*
X155423000Y-120015924D01*
X155468231Y-120243318D01*
X155556956Y-120457519D01*
X155685764Y-120650294D01*
X155849706Y-120814236D01*
X156042481Y-120943044D01*
X156256682Y-121031769D01*
X156484076Y-121077000D01*
X156715924Y-121077000D01*
X156943318Y-121031769D01*
X157157519Y-120943044D01*
X157350294Y-120814236D01*
X157514236Y-120650294D01*
X157643044Y-120457519D01*
X157731769Y-120243318D01*
X157777000Y-120015924D01*
X157777000Y-119784076D01*
X157731769Y-119556682D01*
X157643044Y-119342481D01*
X157514236Y-119149706D01*
X157350294Y-118985764D01*
X157157519Y-118856956D01*
X156943318Y-118768231D01*
X156715924Y-118723000D01*
X156484076Y-118723000D01*
X156256682Y-118768231D01*
X156042481Y-118856956D01*
X155849706Y-118985764D01*
X155685764Y-119149706D01*
X155556956Y-119342481D01*
X155468231Y-119556682D01*
X155423000Y-119784076D01*
X150738840Y-119784076D01*
X150642248Y-119603366D01*
X150463923Y-119386077D01*
X150246634Y-119207752D01*
X149998731Y-119075245D01*
X149729741Y-118993648D01*
X149520098Y-118973000D01*
X148079902Y-118973000D01*
X147870259Y-118993648D01*
X147601269Y-119075245D01*
X147353366Y-119207752D01*
X147136077Y-119386077D01*
X146957752Y-119603366D01*
X146825245Y-119851269D01*
X146743648Y-120120259D01*
X146716096Y-120400000D01*
X134822691Y-120400000D01*
X134912777Y-120362685D01*
X135228391Y-120151799D01*
X135496799Y-119883391D01*
X135707685Y-119567777D01*
X135852947Y-119217085D01*
X135927000Y-118844793D01*
X135927000Y-118465207D01*
X135852947Y-118092915D01*
X135707685Y-117742223D01*
X135496799Y-117426609D01*
X135228391Y-117158201D01*
X134912777Y-116947315D01*
X134562085Y-116802053D01*
X134189793Y-116728000D01*
X133810207Y-116728000D01*
X133437915Y-116802053D01*
X133087223Y-116947315D01*
X132771609Y-117158201D01*
X132503201Y-117426609D01*
X132292315Y-117742223D01*
X132147053Y-118092915D01*
X132073000Y-118465207D01*
X121352297Y-118465207D01*
X121357519Y-118463044D01*
X121550294Y-118334236D01*
X121714236Y-118170294D01*
X121843044Y-117977519D01*
X121931769Y-117763318D01*
X121977000Y-117535924D01*
X121977000Y-117304076D01*
X121931769Y-117076682D01*
X121843044Y-116862481D01*
X121714236Y-116669706D01*
X121550294Y-116505764D01*
X121357519Y-116376956D01*
X121143318Y-116288231D01*
X120915924Y-116243000D01*
X120684076Y-116243000D01*
X120456682Y-116288231D01*
X120242481Y-116376956D01*
X120049706Y-116505764D01*
X119885764Y-116669706D01*
X119756956Y-116862481D01*
X119668231Y-117076682D01*
X119623000Y-117304076D01*
X118152000Y-117304076D01*
X118152000Y-114764076D01*
X119623000Y-114764076D01*
X119623000Y-114995924D01*
X119668231Y-115223318D01*
X119756956Y-115437519D01*
X119885764Y-115630294D01*
X120049706Y-115794236D01*
X120242481Y-115923044D01*
X120456682Y-116011769D01*
X120684076Y-116057000D01*
X120915924Y-116057000D01*
X121143318Y-116011769D01*
X121357519Y-115923044D01*
X121550294Y-115794236D01*
X121714236Y-115630294D01*
X121843044Y-115437519D01*
X121931769Y-115223318D01*
X121977000Y-114995924D01*
X121977000Y-114764076D01*
X121931769Y-114536682D01*
X121843044Y-114322481D01*
X121714236Y-114129706D01*
X121550294Y-113965764D01*
X121357519Y-113836956D01*
X121143318Y-113748231D01*
X120915924Y-113703000D01*
X120684076Y-113703000D01*
X120456682Y-113748231D01*
X120242481Y-113836956D01*
X120049706Y-113965764D01*
X119885764Y-114129706D01*
X119756956Y-114322481D01*
X119668231Y-114536682D01*
X119623000Y-114764076D01*
X118152000Y-114764076D01*
X118152000Y-112224076D01*
X119623000Y-112224076D01*
X119623000Y-112455924D01*
X119668231Y-112683318D01*
X119756956Y-112897519D01*
X119885764Y-113090294D01*
X120049706Y-113254236D01*
X120242481Y-113383044D01*
X120456682Y-113471769D01*
X120684076Y-113517000D01*
X120915924Y-113517000D01*
X121143318Y-113471769D01*
X121357519Y-113383044D01*
X121550294Y-113254236D01*
X121714236Y-113090294D01*
X121843044Y-112897519D01*
X121931769Y-112683318D01*
X121977000Y-112455924D01*
X121977000Y-112224076D01*
X121931769Y-111996682D01*
X121843044Y-111782481D01*
X121714236Y-111589706D01*
X121550294Y-111425764D01*
X121357519Y-111296956D01*
X121143318Y-111208231D01*
X120915924Y-111163000D01*
X120684076Y-111163000D01*
X120456682Y-111208231D01*
X120242481Y-111296956D01*
X120049706Y-111425764D01*
X119885764Y-111589706D01*
X119756956Y-111782481D01*
X119668231Y-111996682D01*
X119623000Y-112224076D01*
X118152000Y-112224076D01*
X118152000Y-109684076D01*
X119623000Y-109684076D01*
X119623000Y-109915924D01*
X119668231Y-110143318D01*
X119756956Y-110357519D01*
X119885764Y-110550294D01*
X120049706Y-110714236D01*
X120242481Y-110843044D01*
X120456682Y-110931769D01*
X120684076Y-110977000D01*
X120915924Y-110977000D01*
X121143318Y-110931769D01*
X121357519Y-110843044D01*
X121550294Y-110714236D01*
X121714236Y-110550294D01*
X121843044Y-110357519D01*
X121931769Y-110143318D01*
X121977000Y-109915924D01*
X121977000Y-109684076D01*
X121931769Y-109456682D01*
X121843044Y-109242481D01*
X121714236Y-109049706D01*
X121550294Y-108885764D01*
X121357519Y-108756956D01*
X121143318Y-108668231D01*
X120915924Y-108623000D01*
X120684076Y-108623000D01*
X120456682Y-108668231D01*
X120242481Y-108756956D01*
X120049706Y-108885764D01*
X119885764Y-109049706D01*
X119756956Y-109242481D01*
X119668231Y-109456682D01*
X119623000Y-109684076D01*
X118152000Y-109684076D01*
X118152000Y-96910000D01*
X120311928Y-96910000D01*
X120324188Y-97034482D01*
X120360498Y-97154180D01*
X120419463Y-97264494D01*
X120498815Y-97361185D01*
X120595506Y-97440537D01*
X120705820Y-97499502D01*
X120825518Y-97535812D01*
X120950000Y-97548072D01*
X121514250Y-97545000D01*
X121673000Y-97386250D01*
X121673000Y-96187000D01*
X121927000Y-96187000D01*
X121927000Y-97386250D01*
X122085750Y-97545000D01*
X122650000Y-97548072D01*
X122774482Y-97535812D01*
X122894180Y-97499502D01*
X123004494Y-97440537D01*
X123101185Y-97361185D01*
X123180537Y-97264494D01*
X123239502Y-97154180D01*
X123275812Y-97034482D01*
X123288072Y-96910000D01*
X123285000Y-96345750D01*
X123126250Y-96187000D01*
X121927000Y-96187000D01*
X121673000Y-96187000D01*
X120473750Y-96187000D01*
X120315000Y-96345750D01*
X120311928Y-96910000D01*
X118152000Y-96910000D01*
X118152000Y-95210000D01*
X120311928Y-95210000D01*
X120315000Y-95774250D01*
X120473750Y-95933000D01*
X121673000Y-95933000D01*
X121673000Y-95913000D01*
X121927000Y-95913000D01*
X121927000Y-95933000D01*
X123126250Y-95933000D01*
X123285000Y-95774250D01*
X123288072Y-95210000D01*
X123275812Y-95085518D01*
X123239502Y-94965820D01*
X123180537Y-94855506D01*
X123101185Y-94758815D01*
X123004494Y-94679463D01*
X122894180Y-94620498D01*
X122774482Y-94584188D01*
X122650000Y-94571928D01*
X122331890Y-94573660D01*
X122357519Y-94563044D01*
X122550294Y-94434236D01*
X122714236Y-94270294D01*
X122843044Y-94077519D01*
X122931769Y-93863318D01*
X122977000Y-93635924D01*
X122977000Y-93404076D01*
X122931769Y-93176682D01*
X122843044Y-92962481D01*
X122714236Y-92769706D01*
X122550294Y-92605764D01*
X122357519Y-92476956D01*
X122143318Y-92388231D01*
X121915924Y-92343000D01*
X121684076Y-92343000D01*
X121456682Y-92388231D01*
X121242481Y-92476956D01*
X121049706Y-92605764D01*
X120885764Y-92769706D01*
X120756956Y-92962481D01*
X120668231Y-93176682D01*
X120623000Y-93404076D01*
X120623000Y-93635924D01*
X120668231Y-93863318D01*
X120756956Y-94077519D01*
X120885764Y-94270294D01*
X121049706Y-94434236D01*
X121242481Y-94563044D01*
X121268110Y-94573660D01*
X120950000Y-94571928D01*
X120825518Y-94584188D01*
X120705820Y-94620498D01*
X120595506Y-94679463D01*
X120498815Y-94758815D01*
X120419463Y-94855506D01*
X120360498Y-94965820D01*
X120324188Y-95085518D01*
X120311928Y-95210000D01*
X118152000Y-95210000D01*
X118152000Y-90864076D01*
X120623000Y-90864076D01*
X120623000Y-91095924D01*
X120668231Y-91323318D01*
X120756956Y-91537519D01*
X120885764Y-91730294D01*
X121049706Y-91894236D01*
X121242481Y-92023044D01*
X121456682Y-92111769D01*
X121684076Y-92157000D01*
X121915924Y-92157000D01*
X122143318Y-92111769D01*
X122357519Y-92023044D01*
X122550294Y-91894236D01*
X122714236Y-91730294D01*
X122843044Y-91537519D01*
X122931769Y-91323318D01*
X122977000Y-91095924D01*
X122977000Y-90864076D01*
X122931769Y-90636682D01*
X122843044Y-90422481D01*
X122714236Y-90229706D01*
X122550294Y-90065764D01*
X122357519Y-89936956D01*
X122143318Y-89848231D01*
X121915924Y-89803000D01*
X121684076Y-89803000D01*
X121456682Y-89848231D01*
X121242481Y-89936956D01*
X121049706Y-90065764D01*
X120885764Y-90229706D01*
X120756956Y-90422481D01*
X120668231Y-90636682D01*
X120623000Y-90864076D01*
X118152000Y-90864076D01*
X118152000Y-83244076D01*
X120623000Y-83244076D01*
X120623000Y-83475924D01*
X120668231Y-83703318D01*
X120756956Y-83917519D01*
X120885764Y-84110294D01*
X121049706Y-84274236D01*
X121242481Y-84403044D01*
X121456682Y-84491769D01*
X121684076Y-84537000D01*
X121915924Y-84537000D01*
X122143318Y-84491769D01*
X122357519Y-84403044D01*
X122550294Y-84274236D01*
X122714236Y-84110294D01*
X122843044Y-83917519D01*
X122931769Y-83703318D01*
X122977000Y-83475924D01*
X122977000Y-83244076D01*
X122931769Y-83016682D01*
X122843044Y-82802481D01*
X122714236Y-82609706D01*
X122550294Y-82445764D01*
X122357519Y-82316956D01*
X122143318Y-82228231D01*
X121915924Y-82183000D01*
X121684076Y-82183000D01*
X121456682Y-82228231D01*
X121242481Y-82316956D01*
X121049706Y-82445764D01*
X120885764Y-82609706D01*
X120756956Y-82802481D01*
X120668231Y-83016682D01*
X120623000Y-83244076D01*
X118152000Y-83244076D01*
X118152000Y-80704076D01*
X120623000Y-80704076D01*
X120623000Y-80935924D01*
X120668231Y-81163318D01*
X120756956Y-81377519D01*
X120885764Y-81570294D01*
X121049706Y-81734236D01*
X121242481Y-81863044D01*
X121456682Y-81951769D01*
X121684076Y-81997000D01*
X121915924Y-81997000D01*
X122143318Y-81951769D01*
X122357519Y-81863044D01*
X122550294Y-81734236D01*
X122714236Y-81570294D01*
X122843044Y-81377519D01*
X122931769Y-81163318D01*
X122977000Y-80935924D01*
X122977000Y-80704076D01*
X122931769Y-80476682D01*
X122843044Y-80262481D01*
X122714236Y-80069706D01*
X122550294Y-79905764D01*
X122357519Y-79776956D01*
X122143318Y-79688231D01*
X121915924Y-79643000D01*
X121684076Y-79643000D01*
X121456682Y-79688231D01*
X121242481Y-79776956D01*
X121049706Y-79905764D01*
X120885764Y-80069706D01*
X120756956Y-80262481D01*
X120668231Y-80476682D01*
X120623000Y-80704076D01*
X118152000Y-80704076D01*
X118152000Y-75624076D01*
X120623000Y-75624076D01*
X120623000Y-75855924D01*
X120668231Y-76083318D01*
X120756956Y-76297519D01*
X120885764Y-76490294D01*
X121049706Y-76654236D01*
X121242481Y-76783044D01*
X121456682Y-76871769D01*
X121684076Y-76917000D01*
X121915924Y-76917000D01*
X122143318Y-76871769D01*
X122357519Y-76783044D01*
X122550294Y-76654236D01*
X122714236Y-76490294D01*
X122843044Y-76297519D01*
X122886751Y-76192000D01*
X162942650Y-76192000D01*
X163035409Y-76415938D01*
X163191576Y-76649660D01*
X163390340Y-76848424D01*
X163624062Y-77004591D01*
X163637120Y-77010000D01*
X163624062Y-77015409D01*
X163390340Y-77171576D01*
X163191576Y-77370340D01*
X163035409Y-77604062D01*
X162942650Y-77828000D01*
X122886751Y-77828000D01*
X122843044Y-77722481D01*
X122714236Y-77529706D01*
X122550294Y-77365764D01*
X122357519Y-77236956D01*
X122143318Y-77148231D01*
X121915924Y-77103000D01*
X121684076Y-77103000D01*
X121456682Y-77148231D01*
X121242481Y-77236956D01*
X121049706Y-77365764D01*
X120885764Y-77529706D01*
X120756956Y-77722481D01*
X120668231Y-77936682D01*
X120623000Y-78164076D01*
X120623000Y-78395924D01*
X120668231Y-78623318D01*
X120756956Y-78837519D01*
X120885764Y-79030294D01*
X121049706Y-79194236D01*
X121242481Y-79323044D01*
X121456682Y-79411769D01*
X121684076Y-79457000D01*
X121915924Y-79457000D01*
X122143318Y-79411769D01*
X122357519Y-79323044D01*
X122550294Y-79194236D01*
X122714236Y-79030294D01*
X122843044Y-78837519D01*
X122886751Y-78732000D01*
X162942650Y-78732000D01*
X163035409Y-78955938D01*
X163191576Y-79189660D01*
X163390340Y-79388424D01*
X163624062Y-79544591D01*
X163637120Y-79550000D01*
X163624062Y-79555409D01*
X163390340Y-79711576D01*
X163191576Y-79910340D01*
X163035409Y-80144062D01*
X162942650Y-80368000D01*
X126902205Y-80368000D01*
X126880000Y-80365813D01*
X126791392Y-80374540D01*
X126706190Y-80400386D01*
X126627667Y-80442357D01*
X126558841Y-80498841D01*
X126544681Y-80516095D01*
X122248838Y-84811939D01*
X122143318Y-84768231D01*
X121915924Y-84723000D01*
X121684076Y-84723000D01*
X121456682Y-84768231D01*
X121242481Y-84856956D01*
X121049706Y-84985764D01*
X120885764Y-85149706D01*
X120756956Y-85342481D01*
X120668231Y-85556682D01*
X120623000Y-85784076D01*
X120623000Y-86015924D01*
X120668231Y-86243318D01*
X120756956Y-86457519D01*
X120885764Y-86650294D01*
X121049706Y-86814236D01*
X121242481Y-86943044D01*
X121456682Y-87031769D01*
X121684076Y-87077000D01*
X121915924Y-87077000D01*
X122143318Y-87031769D01*
X122357519Y-86943044D01*
X122550294Y-86814236D01*
X122714236Y-86650294D01*
X122843044Y-86457519D01*
X122931769Y-86243318D01*
X122977000Y-86015924D01*
X122977000Y-85784076D01*
X122931769Y-85556682D01*
X122888061Y-85451162D01*
X127067224Y-81272000D01*
X162942650Y-81272000D01*
X163035409Y-81495938D01*
X163191576Y-81729660D01*
X163390340Y-81928424D01*
X163624062Y-82084591D01*
X163637120Y-82090000D01*
X163624062Y-82095409D01*
X163390340Y-82251576D01*
X163191576Y-82450340D01*
X163035409Y-82684062D01*
X162942650Y-82908000D01*
X126902204Y-82908000D01*
X126879999Y-82905813D01*
X126791393Y-82914540D01*
X126706190Y-82940386D01*
X126627667Y-82982357D01*
X126558841Y-83038841D01*
X126544681Y-83056095D01*
X122248838Y-87351939D01*
X122143318Y-87308231D01*
X121915924Y-87263000D01*
X121684076Y-87263000D01*
X121456682Y-87308231D01*
X121242481Y-87396956D01*
X121049706Y-87525764D01*
X120885764Y-87689706D01*
X120756956Y-87882481D01*
X120668231Y-88096682D01*
X120623000Y-88324076D01*
X120623000Y-88555924D01*
X120668231Y-88783318D01*
X120756956Y-88997519D01*
X120885764Y-89190294D01*
X121049706Y-89354236D01*
X121242481Y-89483044D01*
X121456682Y-89571769D01*
X121684076Y-89617000D01*
X121915924Y-89617000D01*
X122143318Y-89571769D01*
X122248838Y-89528061D01*
X147024681Y-114303905D01*
X147038841Y-114321159D01*
X147107667Y-114377643D01*
X147172054Y-114412058D01*
X147186190Y-114419614D01*
X147271392Y-114445460D01*
X147360000Y-114454187D01*
X147382205Y-114452000D01*
X149727661Y-114452000D01*
X149735302Y-114463436D01*
X149836564Y-114564698D01*
X149955636Y-114644259D01*
X150087942Y-114699062D01*
X150228397Y-114727000D01*
X150371603Y-114727000D01*
X150512058Y-114699062D01*
X150644364Y-114644259D01*
X150763436Y-114564698D01*
X150864698Y-114463436D01*
X150944259Y-114344364D01*
X150999062Y-114212058D01*
X151027000Y-114071603D01*
X151027000Y-113928397D01*
X150999062Y-113787942D01*
X150944259Y-113655636D01*
X150864698Y-113536564D01*
X150780134Y-113452000D01*
X150827661Y-113452000D01*
X150835302Y-113463436D01*
X150936564Y-113564698D01*
X151055636Y-113644259D01*
X151187942Y-113699062D01*
X151328397Y-113727000D01*
X151471603Y-113727000D01*
X151612058Y-113699062D01*
X151744364Y-113644259D01*
X151863436Y-113564698D01*
X151964698Y-113463436D01*
X152033409Y-113360603D01*
X152035302Y-113363436D01*
X152136564Y-113464698D01*
X152255636Y-113544259D01*
X152387942Y-113599062D01*
X152481154Y-113617603D01*
X152455741Y-113655636D01*
X152400938Y-113787942D01*
X152373000Y-113928397D01*
X152373000Y-114071603D01*
X152400938Y-114212058D01*
X152455741Y-114344364D01*
X152535302Y-114463436D01*
X152636564Y-114564698D01*
X152755636Y-114644259D01*
X152887942Y-114699062D01*
X153028397Y-114727000D01*
X153171603Y-114727000D01*
X153185094Y-114724317D01*
X162155610Y-123694834D01*
X162056956Y-123842481D01*
X161968231Y-124056682D01*
X161923000Y-124284076D01*
X161923000Y-124515924D01*
X161968231Y-124743318D01*
X162056956Y-124957519D01*
X162185764Y-125150294D01*
X162349706Y-125314236D01*
X162542481Y-125443044D01*
X162756682Y-125531769D01*
X162984076Y-125577000D01*
X163215924Y-125577000D01*
X163443318Y-125531769D01*
X163657519Y-125443044D01*
X163850294Y-125314236D01*
X164014236Y-125150294D01*
X164143044Y-124957519D01*
X164231769Y-124743318D01*
X164277000Y-124515924D01*
X164277000Y-124284076D01*
X164231769Y-124056682D01*
X164143044Y-123842481D01*
X164014236Y-123649706D01*
X163850294Y-123485764D01*
X163657519Y-123356956D01*
X163443318Y-123268231D01*
X163215924Y-123223000D01*
X162984076Y-123223000D01*
X162965849Y-123226625D01*
X159523300Y-119784076D01*
X161923000Y-119784076D01*
X161923000Y-120015924D01*
X161968231Y-120243318D01*
X162056956Y-120457519D01*
X162185764Y-120650294D01*
X162349706Y-120814236D01*
X162542481Y-120943044D01*
X162756682Y-121031769D01*
X162984076Y-121077000D01*
X163215924Y-121077000D01*
X163443318Y-121031769D01*
X163657519Y-120943044D01*
X163850294Y-120814236D01*
X164014236Y-120650294D01*
X164143044Y-120457519D01*
X164231769Y-120243318D01*
X164277000Y-120015924D01*
X164277000Y-119784076D01*
X164231769Y-119556682D01*
X164143044Y-119342481D01*
X164014236Y-119149706D01*
X163850294Y-118985764D01*
X163657519Y-118856956D01*
X163443318Y-118768231D01*
X163215924Y-118723000D01*
X162984076Y-118723000D01*
X162756682Y-118768231D01*
X162542481Y-118856956D01*
X162349706Y-118985764D01*
X162185764Y-119149706D01*
X162056956Y-119342481D01*
X161968231Y-119556682D01*
X161923000Y-119784076D01*
X159523300Y-119784076D01*
X153824317Y-114085094D01*
X153827000Y-114071603D01*
X153827000Y-113928397D01*
X153799062Y-113787942D01*
X153744259Y-113655636D01*
X153664698Y-113536564D01*
X153563436Y-113435302D01*
X153444364Y-113355741D01*
X153312058Y-113300938D01*
X153218846Y-113282397D01*
X153244259Y-113244364D01*
X153299062Y-113112058D01*
X153327000Y-112971603D01*
X153327000Y-112866224D01*
X154175683Y-113714907D01*
X154173000Y-113728397D01*
X154173000Y-113871603D01*
X154200938Y-114012058D01*
X154255741Y-114144364D01*
X154335302Y-114263436D01*
X154436564Y-114364698D01*
X154555636Y-114444259D01*
X154687942Y-114499062D01*
X154828397Y-114527000D01*
X154971603Y-114527000D01*
X155112058Y-114499062D01*
X155244364Y-114444259D01*
X155363436Y-114364698D01*
X155464698Y-114263436D01*
X155544259Y-114144364D01*
X155599062Y-114012058D01*
X155627000Y-113871603D01*
X155627000Y-113728397D01*
X155599062Y-113587942D01*
X155544259Y-113455636D01*
X155464698Y-113336564D01*
X155363436Y-113235302D01*
X155244364Y-113155741D01*
X155112058Y-113100938D01*
X154971603Y-113073000D01*
X154828397Y-113073000D01*
X154814907Y-113075683D01*
X146967621Y-105228397D01*
X149973000Y-105228397D01*
X149973000Y-105371603D01*
X150000938Y-105512058D01*
X150055741Y-105644364D01*
X150135302Y-105763436D01*
X150236564Y-105864698D01*
X150355636Y-105944259D01*
X150487942Y-105999062D01*
X150628397Y-106027000D01*
X150771603Y-106027000D01*
X150912058Y-105999062D01*
X151044364Y-105944259D01*
X151163436Y-105864698D01*
X151264698Y-105763436D01*
X151344259Y-105644364D01*
X151399062Y-105512058D01*
X151427000Y-105371603D01*
X151427000Y-105228397D01*
X151399062Y-105087942D01*
X151368918Y-105015169D01*
X151428397Y-105027000D01*
X151571603Y-105027000D01*
X151712058Y-104999062D01*
X151844364Y-104944259D01*
X151963436Y-104864698D01*
X152064698Y-104763436D01*
X152144259Y-104644364D01*
X152199062Y-104512058D01*
X152227000Y-104371603D01*
X152227000Y-104228397D01*
X152199062Y-104087942D01*
X152144259Y-103955636D01*
X152064698Y-103836564D01*
X151963436Y-103735302D01*
X151952000Y-103727661D01*
X151952000Y-100572339D01*
X151963436Y-100564698D01*
X152064698Y-100463436D01*
X152144259Y-100344364D01*
X152199062Y-100212058D01*
X152227000Y-100071603D01*
X152227000Y-99928397D01*
X152199062Y-99787942D01*
X152144259Y-99655636D01*
X152064698Y-99536564D01*
X151963436Y-99435302D01*
X151844364Y-99355741D01*
X151712058Y-99300938D01*
X151571603Y-99273000D01*
X151428397Y-99273000D01*
X151287942Y-99300938D01*
X151155636Y-99355741D01*
X151152000Y-99358170D01*
X151152000Y-98987223D01*
X151414907Y-98724317D01*
X151428397Y-98727000D01*
X151571603Y-98727000D01*
X151712058Y-98699062D01*
X151844364Y-98644259D01*
X151963436Y-98564698D01*
X152064698Y-98463436D01*
X152144259Y-98344364D01*
X152199062Y-98212058D01*
X152227000Y-98071603D01*
X152227000Y-97928397D01*
X152199062Y-97787942D01*
X152144259Y-97655636D01*
X152064698Y-97536564D01*
X151963436Y-97435302D01*
X151844364Y-97355741D01*
X151712058Y-97300938D01*
X151571603Y-97273000D01*
X151428397Y-97273000D01*
X151287942Y-97300938D01*
X151155636Y-97355741D01*
X151036564Y-97435302D01*
X150935302Y-97536564D01*
X150855741Y-97655636D01*
X150800938Y-97787942D01*
X150773000Y-97928397D01*
X150773000Y-98071603D01*
X150775683Y-98085093D01*
X150396100Y-98464677D01*
X150378841Y-98478841D01*
X150322357Y-98547668D01*
X150280387Y-98626190D01*
X150280386Y-98626191D01*
X150254540Y-98711393D01*
X150245813Y-98800000D01*
X150248000Y-98822205D01*
X150248001Y-104727660D01*
X150236564Y-104735302D01*
X150135302Y-104836564D01*
X150055741Y-104955636D01*
X150000938Y-105087942D01*
X149973000Y-105228397D01*
X146967621Y-105228397D01*
X145635321Y-103896098D01*
X145621157Y-103878839D01*
X145552331Y-103822355D01*
X145473808Y-103780384D01*
X145388605Y-103754538D01*
X145322203Y-103747998D01*
X145299998Y-103745811D01*
X145277793Y-103747998D01*
X143072339Y-103747998D01*
X143064698Y-103736562D01*
X142963436Y-103635300D01*
X142844364Y-103555739D01*
X142712058Y-103500936D01*
X142571603Y-103472998D01*
X142428397Y-103472998D01*
X142287942Y-103500936D01*
X142155636Y-103555739D01*
X142036564Y-103635300D01*
X141935302Y-103736562D01*
X141855741Y-103855634D01*
X141800938Y-103987940D01*
X141773000Y-104128395D01*
X141773000Y-104271601D01*
X141800938Y-104412056D01*
X141855741Y-104544362D01*
X141935302Y-104663434D01*
X142036564Y-104764696D01*
X142089399Y-104799999D01*
X142036564Y-104835302D01*
X141935302Y-104936564D01*
X141855741Y-105055636D01*
X141800938Y-105187942D01*
X141773000Y-105328397D01*
X141773000Y-105471603D01*
X141800938Y-105612058D01*
X141855741Y-105744364D01*
X141935302Y-105863436D01*
X142036564Y-105964698D01*
X142089397Y-106000000D01*
X142036564Y-106035302D01*
X141935302Y-106136564D01*
X141855741Y-106255636D01*
X141800938Y-106387942D01*
X141773000Y-106528397D01*
X141773000Y-106671603D01*
X141800938Y-106812058D01*
X141855741Y-106944364D01*
X141935302Y-107063436D01*
X142036564Y-107164698D01*
X142155636Y-107244259D01*
X142287942Y-107299062D01*
X142428397Y-107327000D01*
X142571603Y-107327000D01*
X142585094Y-107324317D01*
X148564681Y-113303905D01*
X148578841Y-113321159D01*
X148647667Y-113377643D01*
X148657772Y-113383044D01*
X148726190Y-113419614D01*
X148811392Y-113445460D01*
X148900000Y-113454187D01*
X148922205Y-113452000D01*
X149819866Y-113452000D01*
X149735302Y-113536564D01*
X149727661Y-113548000D01*
X147547224Y-113548000D01*
X123539224Y-89540000D01*
X162561928Y-89540000D01*
X162574188Y-89664482D01*
X162610498Y-89784180D01*
X162669463Y-89894494D01*
X162748815Y-89991185D01*
X162845506Y-90070537D01*
X162955820Y-90129502D01*
X163075518Y-90165812D01*
X163200000Y-90178072D01*
X164014250Y-90175000D01*
X164173000Y-90016250D01*
X164173000Y-88567000D01*
X162723750Y-88567000D01*
X162565000Y-88725750D01*
X162561928Y-89540000D01*
X123539224Y-89540000D01*
X122888061Y-88888838D01*
X122931769Y-88783318D01*
X122977000Y-88555924D01*
X122977000Y-88324076D01*
X122931769Y-88096682D01*
X122888061Y-87991162D01*
X127067224Y-83812000D01*
X162942650Y-83812000D01*
X163035409Y-84035938D01*
X163191576Y-84269660D01*
X163390340Y-84468424D01*
X163624062Y-84624591D01*
X163637120Y-84630000D01*
X163624062Y-84635409D01*
X163390340Y-84791576D01*
X163191576Y-84990340D01*
X163035409Y-85224062D01*
X162927838Y-85483759D01*
X162873000Y-85759453D01*
X162873000Y-86040547D01*
X162927838Y-86316241D01*
X163035409Y-86575938D01*
X163124557Y-86709358D01*
X163075518Y-86714188D01*
X162955820Y-86750498D01*
X162845506Y-86809463D01*
X162748815Y-86888815D01*
X162669463Y-86985506D01*
X162610498Y-87095820D01*
X162574188Y-87215518D01*
X162561928Y-87340000D01*
X162565000Y-88154250D01*
X162723750Y-88313000D01*
X164173000Y-88313000D01*
X164173000Y-88293000D01*
X164427000Y-88293000D01*
X164427000Y-88313000D01*
X164447000Y-88313000D01*
X164447000Y-88567000D01*
X164427000Y-88567000D01*
X164427000Y-90016250D01*
X164585750Y-90175000D01*
X165400000Y-90178072D01*
X165401891Y-90177886D01*
X165331777Y-90248000D01*
X163722205Y-90248000D01*
X163700000Y-90245813D01*
X163611392Y-90254540D01*
X163549922Y-90273187D01*
X163526190Y-90280386D01*
X163447667Y-90322357D01*
X163378841Y-90378841D01*
X163364681Y-90396095D01*
X158396096Y-95364681D01*
X158378842Y-95378841D01*
X158322358Y-95447667D01*
X158280386Y-95526191D01*
X158254540Y-95611393D01*
X158245813Y-95700000D01*
X158248001Y-95722215D01*
X158248000Y-113488992D01*
X158187942Y-113500938D01*
X158055636Y-113555741D01*
X157936564Y-113635302D01*
X157835302Y-113736564D01*
X157755741Y-113855636D01*
X157700938Y-113987942D01*
X157673000Y-114128397D01*
X157673000Y-114271603D01*
X157700938Y-114412058D01*
X157755741Y-114544364D01*
X157835302Y-114663436D01*
X157936564Y-114764698D01*
X158055636Y-114844259D01*
X158187942Y-114899062D01*
X158328397Y-114927000D01*
X158471603Y-114927000D01*
X158612058Y-114899062D01*
X158744364Y-114844259D01*
X158863436Y-114764698D01*
X158964698Y-114663436D01*
X159044259Y-114544364D01*
X159099062Y-114412058D01*
X159127000Y-114271603D01*
X159127000Y-114128397D01*
X159117084Y-114078544D01*
X159119614Y-114073810D01*
X159145460Y-113988607D01*
X159145460Y-113988606D01*
X159154187Y-113900001D01*
X159152000Y-113877796D01*
X159152000Y-95887223D01*
X163021441Y-92017782D01*
X162927838Y-92243759D01*
X162873000Y-92519453D01*
X162873000Y-92800547D01*
X162927838Y-93076241D01*
X163035409Y-93335938D01*
X163191576Y-93569660D01*
X163390340Y-93768424D01*
X163394821Y-93771418D01*
X163200000Y-93771418D01*
X163135897Y-93777732D01*
X163074257Y-93796430D01*
X163017450Y-93826794D01*
X162967657Y-93867657D01*
X162926794Y-93917450D01*
X162896430Y-93974257D01*
X162877732Y-94035897D01*
X162871418Y-94100000D01*
X162871418Y-96300000D01*
X162877732Y-96364103D01*
X162896430Y-96425743D01*
X162926794Y-96482550D01*
X162967657Y-96532343D01*
X163017450Y-96573206D01*
X163074257Y-96603570D01*
X163135897Y-96622268D01*
X163200000Y-96628582D01*
X165400000Y-96628582D01*
X165464103Y-96622268D01*
X165525743Y-96603570D01*
X165582550Y-96573206D01*
X165632343Y-96532343D01*
X165673206Y-96482550D01*
X165703570Y-96425743D01*
X165722268Y-96364103D01*
X165728582Y-96300000D01*
X165728582Y-95113623D01*
X165963000Y-95113623D01*
X165963000Y-95286377D01*
X165996703Y-95455811D01*
X166062813Y-95615415D01*
X166158790Y-95759055D01*
X166280945Y-95881210D01*
X166424585Y-95977187D01*
X166584189Y-96043297D01*
X166753623Y-96077000D01*
X166926377Y-96077000D01*
X167095811Y-96043297D01*
X167255415Y-95977187D01*
X167399055Y-95881210D01*
X167521210Y-95759055D01*
X167617187Y-95615415D01*
X167683297Y-95455811D01*
X167717000Y-95286377D01*
X167717000Y-95113623D01*
X167683297Y-94944189D01*
X167617187Y-94784585D01*
X167521210Y-94640945D01*
X167399055Y-94518790D01*
X167255415Y-94422813D01*
X167095811Y-94356703D01*
X166926377Y-94323000D01*
X166753623Y-94323000D01*
X166584189Y-94356703D01*
X166424585Y-94422813D01*
X166280945Y-94518790D01*
X166158790Y-94640945D01*
X166062813Y-94784585D01*
X165996703Y-94944189D01*
X165963000Y-95113623D01*
X165728582Y-95113623D01*
X165728582Y-94100000D01*
X165722268Y-94035897D01*
X165703570Y-93974257D01*
X165673206Y-93917450D01*
X165632343Y-93867657D01*
X165582550Y-93826794D01*
X165525743Y-93796430D01*
X165464103Y-93777732D01*
X165400000Y-93771418D01*
X165205179Y-93771418D01*
X165209660Y-93768424D01*
X165408424Y-93569660D01*
X165564591Y-93335938D01*
X165672162Y-93076241D01*
X165727000Y-92800547D01*
X165727000Y-92573623D01*
X165963000Y-92573623D01*
X165963000Y-92746377D01*
X165996703Y-92915811D01*
X166062813Y-93075415D01*
X166158790Y-93219055D01*
X166280945Y-93341210D01*
X166424585Y-93437187D01*
X166584189Y-93503297D01*
X166753623Y-93537000D01*
X166926377Y-93537000D01*
X167095811Y-93503297D01*
X167255415Y-93437187D01*
X167399055Y-93341210D01*
X167521210Y-93219055D01*
X167617187Y-93075415D01*
X167683297Y-92915811D01*
X167717000Y-92746377D01*
X167717000Y-92573623D01*
X167683297Y-92404189D01*
X167617187Y-92244585D01*
X167521210Y-92100945D01*
X167399055Y-91978790D01*
X167255415Y-91882813D01*
X167095811Y-91816703D01*
X166926377Y-91783000D01*
X166753623Y-91783000D01*
X166584189Y-91816703D01*
X166424585Y-91882813D01*
X166280945Y-91978790D01*
X166158790Y-92100945D01*
X166062813Y-92244585D01*
X165996703Y-92404189D01*
X165963000Y-92573623D01*
X165727000Y-92573623D01*
X165727000Y-92519453D01*
X165672162Y-92243759D01*
X165564591Y-91984062D01*
X165408424Y-91750340D01*
X165209660Y-91551576D01*
X164975938Y-91395409D01*
X164716241Y-91287838D01*
X164440547Y-91233000D01*
X164159453Y-91233000D01*
X163883759Y-91287838D01*
X163657783Y-91381441D01*
X163887224Y-91152000D01*
X165496795Y-91152000D01*
X165519000Y-91154187D01*
X165541205Y-91152000D01*
X165607607Y-91145460D01*
X165692810Y-91119614D01*
X165771333Y-91077643D01*
X165840159Y-91021159D01*
X165854323Y-91003900D01*
X166703911Y-90154313D01*
X166721159Y-90140159D01*
X166777643Y-90071333D01*
X166819614Y-89992810D01*
X166845460Y-89907607D01*
X166852000Y-89841205D01*
X166852000Y-89841204D01*
X166854187Y-89819001D01*
X166852000Y-89796796D01*
X166852000Y-74822204D01*
X166854187Y-74799999D01*
X166845460Y-74711392D01*
X166839444Y-74691562D01*
X166819614Y-74626190D01*
X166777643Y-74547667D01*
X166721159Y-74478841D01*
X166703910Y-74464685D01*
X165835323Y-73596100D01*
X165821159Y-73578841D01*
X165752333Y-73522357D01*
X165673810Y-73480386D01*
X165588607Y-73454540D01*
X165522205Y-73448000D01*
X165500000Y-73445813D01*
X165477795Y-73448000D01*
X164072339Y-73448000D01*
X164064698Y-73436564D01*
X163963436Y-73335302D01*
X163844364Y-73255741D01*
X163712058Y-73200938D01*
X163571603Y-73173000D01*
X163428397Y-73173000D01*
X163287942Y-73200938D01*
X163155636Y-73255741D01*
X163036564Y-73335302D01*
X162935302Y-73436564D01*
X162855741Y-73555636D01*
X162800938Y-73687942D01*
X162773000Y-73828397D01*
X162773000Y-73971603D01*
X162800938Y-74112058D01*
X162855741Y-74244364D01*
X162935302Y-74363436D01*
X163036564Y-74464698D01*
X163155636Y-74544259D01*
X163287942Y-74599062D01*
X163404348Y-74622216D01*
X163390340Y-74631576D01*
X163191576Y-74830340D01*
X163035409Y-75064062D01*
X162942650Y-75288000D01*
X122886751Y-75288000D01*
X122843044Y-75182481D01*
X122714236Y-74989706D01*
X122550294Y-74825764D01*
X122357519Y-74696956D01*
X122143318Y-74608231D01*
X121915924Y-74563000D01*
X121684076Y-74563000D01*
X121456682Y-74608231D01*
X121242481Y-74696956D01*
X121049706Y-74825764D01*
X120885764Y-74989706D01*
X120756956Y-75182481D01*
X120668231Y-75396682D01*
X120623000Y-75624076D01*
X118152000Y-75624076D01*
X118152000Y-70424076D01*
X145943000Y-70424076D01*
X145943000Y-70655924D01*
X145988231Y-70883318D01*
X146076956Y-71097519D01*
X146205764Y-71290294D01*
X146369706Y-71454236D01*
X146562481Y-71583044D01*
X146776682Y-71671769D01*
X147004076Y-71717000D01*
X147235924Y-71717000D01*
X147463318Y-71671769D01*
X147677519Y-71583044D01*
X147870294Y-71454236D01*
X148034236Y-71290294D01*
X148163044Y-71097519D01*
X148251769Y-70883318D01*
X148297000Y-70655924D01*
X148297000Y-70424076D01*
X148483000Y-70424076D01*
X148483000Y-70655924D01*
X148528231Y-70883318D01*
X148616956Y-71097519D01*
X148745764Y-71290294D01*
X148909706Y-71454236D01*
X149102481Y-71583044D01*
X149316682Y-71671769D01*
X149544076Y-71717000D01*
X149775924Y-71717000D01*
X150003318Y-71671769D01*
X150217519Y-71583044D01*
X150410294Y-71454236D01*
X150574236Y-71290294D01*
X150703044Y-71097519D01*
X150771264Y-70932821D01*
X150855843Y-71171252D01*
X151004822Y-71421355D01*
X151199731Y-71637588D01*
X151433080Y-71811641D01*
X151695901Y-71936825D01*
X151843110Y-71981476D01*
X152073000Y-71860155D01*
X152073000Y-70667000D01*
X152327000Y-70667000D01*
X152327000Y-71860155D01*
X152556890Y-71981476D01*
X152704099Y-71936825D01*
X152966920Y-71811641D01*
X153200269Y-71637588D01*
X153395178Y-71421355D01*
X153544157Y-71171252D01*
X153641481Y-70896891D01*
X153520814Y-70667000D01*
X152327000Y-70667000D01*
X152073000Y-70667000D01*
X152053000Y-70667000D01*
X152053000Y-70413000D01*
X152073000Y-70413000D01*
X152073000Y-70393000D01*
X152327000Y-70393000D01*
X152327000Y-70413000D01*
X153520814Y-70413000D01*
X153641481Y-70183109D01*
X153544157Y-69908748D01*
X153395178Y-69658645D01*
X153200269Y-69442412D01*
X152966920Y-69268359D01*
X152778435Y-69178582D01*
X153050000Y-69178582D01*
X153114103Y-69172268D01*
X153175743Y-69153570D01*
X153232550Y-69123206D01*
X153282343Y-69082343D01*
X153323206Y-69032550D01*
X153353570Y-68975743D01*
X153372268Y-68914103D01*
X153378582Y-68850000D01*
X153378582Y-67150000D01*
X153372268Y-67085897D01*
X153353570Y-67024257D01*
X153323206Y-66967450D01*
X153282343Y-66917657D01*
X153232550Y-66876794D01*
X153175743Y-66846430D01*
X153114103Y-66827732D01*
X153050000Y-66821418D01*
X151350000Y-66821418D01*
X151285897Y-66827732D01*
X151224257Y-66846430D01*
X151167450Y-66876794D01*
X151117657Y-66917657D01*
X151076794Y-66967450D01*
X151046430Y-67024257D01*
X151027732Y-67085897D01*
X151021418Y-67150000D01*
X151021418Y-68850000D01*
X151027732Y-68914103D01*
X151046430Y-68975743D01*
X151076794Y-69032550D01*
X151117657Y-69082343D01*
X151167450Y-69123206D01*
X151224257Y-69153570D01*
X151285897Y-69172268D01*
X151350000Y-69178582D01*
X151621565Y-69178582D01*
X151433080Y-69268359D01*
X151199731Y-69442412D01*
X151004822Y-69658645D01*
X150855843Y-69908748D01*
X150771264Y-70147179D01*
X150703044Y-69982481D01*
X150574236Y-69789706D01*
X150410294Y-69625764D01*
X150217519Y-69496956D01*
X150003318Y-69408231D01*
X149775924Y-69363000D01*
X149544076Y-69363000D01*
X149316682Y-69408231D01*
X149102481Y-69496956D01*
X148909706Y-69625764D01*
X148745764Y-69789706D01*
X148616956Y-69982481D01*
X148528231Y-70196682D01*
X148483000Y-70424076D01*
X148297000Y-70424076D01*
X148251769Y-70196682D01*
X148163044Y-69982481D01*
X148034236Y-69789706D01*
X147870294Y-69625764D01*
X147677519Y-69496956D01*
X147463318Y-69408231D01*
X147235924Y-69363000D01*
X147004076Y-69363000D01*
X146776682Y-69408231D01*
X146562481Y-69496956D01*
X146369706Y-69625764D01*
X146205764Y-69789706D01*
X146076956Y-69982481D01*
X145988231Y-70196682D01*
X145943000Y-70424076D01*
X118152000Y-70424076D01*
X118152000Y-67884076D01*
X145943000Y-67884076D01*
X145943000Y-68115924D01*
X145988231Y-68343318D01*
X146076956Y-68557519D01*
X146205764Y-68750294D01*
X146369706Y-68914236D01*
X146562481Y-69043044D01*
X146776682Y-69131769D01*
X147004076Y-69177000D01*
X147235924Y-69177000D01*
X147463318Y-69131769D01*
X147677519Y-69043044D01*
X147870294Y-68914236D01*
X148034236Y-68750294D01*
X148163044Y-68557519D01*
X148251769Y-68343318D01*
X148297000Y-68115924D01*
X148297000Y-67884076D01*
X148483000Y-67884076D01*
X148483000Y-68115924D01*
X148528231Y-68343318D01*
X148616956Y-68557519D01*
X148745764Y-68750294D01*
X148909706Y-68914236D01*
X149102481Y-69043044D01*
X149316682Y-69131769D01*
X149544076Y-69177000D01*
X149775924Y-69177000D01*
X150003318Y-69131769D01*
X150217519Y-69043044D01*
X150410294Y-68914236D01*
X150574236Y-68750294D01*
X150703044Y-68557519D01*
X150791769Y-68343318D01*
X150837000Y-68115924D01*
X150837000Y-67884076D01*
X150791769Y-67656682D01*
X150703044Y-67442481D01*
X150574236Y-67249706D01*
X150410294Y-67085764D01*
X150217519Y-66956956D01*
X150003318Y-66868231D01*
X149775924Y-66823000D01*
X149544076Y-66823000D01*
X149316682Y-66868231D01*
X149102481Y-66956956D01*
X148909706Y-67085764D01*
X148745764Y-67249706D01*
X148616956Y-67442481D01*
X148528231Y-67656682D01*
X148483000Y-67884076D01*
X148297000Y-67884076D01*
X148251769Y-67656682D01*
X148163044Y-67442481D01*
X148034236Y-67249706D01*
X147870294Y-67085764D01*
X147677519Y-66956956D01*
X147463318Y-66868231D01*
X147235924Y-66823000D01*
X147004076Y-66823000D01*
X146776682Y-66868231D01*
X146562481Y-66956956D01*
X146369706Y-67085764D01*
X146205764Y-67249706D01*
X146076956Y-67442481D01*
X145988231Y-67656682D01*
X145943000Y-67884076D01*
X118152000Y-67884076D01*
X118152000Y-62855207D01*
X132073000Y-62855207D01*
X132073000Y-63234793D01*
X132147053Y-63607085D01*
X132292315Y-63957777D01*
X132503201Y-64273391D01*
X132771609Y-64541799D01*
X133087223Y-64752685D01*
X133437915Y-64897947D01*
X133810207Y-64972000D01*
X134189793Y-64972000D01*
X134562085Y-64897947D01*
X134912777Y-64752685D01*
X135228391Y-64541799D01*
X135496799Y-64273391D01*
X135707685Y-63957777D01*
X135852947Y-63607085D01*
X135927000Y-63234793D01*
X135927000Y-62855207D01*
X135852947Y-62482915D01*
X135707685Y-62132223D01*
X135496799Y-61816609D01*
X135228391Y-61548201D01*
X134912777Y-61337315D01*
X134562085Y-61192053D01*
X134189793Y-61118000D01*
X133810207Y-61118000D01*
X133437915Y-61192053D01*
X133087223Y-61337315D01*
X132771609Y-61548201D01*
X132503201Y-61816609D01*
X132292315Y-62132223D01*
X132147053Y-62482915D01*
X132073000Y-62855207D01*
X118152000Y-62855207D01*
X118152000Y-54935891D01*
X118194745Y-55039087D01*
X118504125Y-55502108D01*
X118897892Y-55895875D01*
X119360913Y-56205255D01*
X119875394Y-56418360D01*
X120421565Y-56527000D01*
X120978435Y-56527000D01*
X121524606Y-56418360D01*
X122039087Y-56205255D01*
X122502108Y-55895875D01*
X122895875Y-55502108D01*
X123167605Y-55095433D01*
X131923000Y-55095433D01*
X131923000Y-55504567D01*
X132002818Y-55905839D01*
X132159386Y-56283829D01*
X132386689Y-56624011D01*
X132675989Y-56913311D01*
X133016171Y-57140614D01*
X133394161Y-57297182D01*
X133795433Y-57377000D01*
X134204567Y-57377000D01*
X134605839Y-57297182D01*
X134983829Y-57140614D01*
X135324011Y-56913311D01*
X135613311Y-56624011D01*
X135840614Y-56283829D01*
X135997182Y-55905839D01*
X136077000Y-55504567D01*
X136077000Y-55095433D01*
X135997182Y-54694161D01*
X135840614Y-54316171D01*
X135613311Y-53975989D01*
X135324011Y-53686689D01*
X134983829Y-53459386D01*
X134605839Y-53302818D01*
X134204567Y-53223000D01*
X133795433Y-53223000D01*
X133394161Y-53302818D01*
X133016171Y-53459386D01*
X132675989Y-53686689D01*
X132386689Y-53975989D01*
X132159386Y-54316171D01*
X132002818Y-54694161D01*
X131923000Y-55095433D01*
X123167605Y-55095433D01*
X123205255Y-55039087D01*
X123418360Y-54524606D01*
X123527000Y-53978435D01*
X123527000Y-53421565D01*
X123418360Y-52875394D01*
X123205255Y-52360913D01*
X122895875Y-51897892D01*
X122502108Y-51504125D01*
X122039087Y-51194745D01*
X121935891Y-51152000D01*
X164664109Y-51152000D01*
X164560913Y-51194745D01*
G04 #@! TA.AperFunction,Conductor*
D25*
G36*
X164560913Y-51194745D02*
G01*
X164097892Y-51504125D01*
X163704125Y-51897892D01*
X163394745Y-52360913D01*
X163181640Y-52875394D01*
X163073000Y-53421565D01*
X163073000Y-53978435D01*
X163181640Y-54524606D01*
X163394745Y-55039087D01*
X163704125Y-55502108D01*
X164097892Y-55895875D01*
X164560913Y-56205255D01*
X165075394Y-56418360D01*
X165621565Y-56527000D01*
X166178435Y-56527000D01*
X166724606Y-56418360D01*
X167239087Y-56205255D01*
X167702108Y-55895875D01*
X168095875Y-55502108D01*
X168405255Y-55039087D01*
X168448001Y-54935889D01*
X168448000Y-127664109D01*
X168405255Y-127560913D01*
X168095875Y-127097892D01*
X167702108Y-126704125D01*
X167239087Y-126394745D01*
X166724606Y-126181640D01*
X166178435Y-126073000D01*
X165621565Y-126073000D01*
X165075394Y-126181640D01*
X164560913Y-126394745D01*
X164097892Y-126704125D01*
X163704125Y-127097892D01*
X163394745Y-127560913D01*
X163181640Y-128075394D01*
X163073000Y-128621565D01*
X163073000Y-129178435D01*
X163181640Y-129724606D01*
X163394745Y-130239087D01*
X163704125Y-130702108D01*
X164097892Y-131095875D01*
X164560913Y-131405255D01*
X164664109Y-131448000D01*
X121935891Y-131448000D01*
X122039087Y-131405255D01*
X122502108Y-131095875D01*
X122895875Y-130702108D01*
X123205255Y-130239087D01*
X123418360Y-129724606D01*
X123527000Y-129178435D01*
X123527000Y-128621565D01*
X123418360Y-128075394D01*
X123205255Y-127560913D01*
X122895875Y-127097892D01*
X122502108Y-126704125D01*
X122039087Y-126394745D01*
X121524606Y-126181640D01*
X120978435Y-126073000D01*
X120421565Y-126073000D01*
X119875394Y-126181640D01*
X119360913Y-126394745D01*
X118897892Y-126704125D01*
X118504125Y-127097892D01*
X118194745Y-127560913D01*
X118152000Y-127664109D01*
X118152000Y-125550000D01*
X131921418Y-125550000D01*
X131921418Y-129050000D01*
X131927732Y-129114103D01*
X131946430Y-129175743D01*
X131976794Y-129232550D01*
X132017657Y-129282343D01*
X132067450Y-129323206D01*
X132124257Y-129353570D01*
X132185897Y-129372268D01*
X132250000Y-129378582D01*
X135750000Y-129378582D01*
X135814103Y-129372268D01*
X135875743Y-129353570D01*
X135932550Y-129323206D01*
X135982343Y-129282343D01*
X136023206Y-129232550D01*
X136053570Y-129175743D01*
X136072268Y-129114103D01*
X136078582Y-129050000D01*
X136078582Y-128600000D01*
X146716096Y-128600000D01*
X146743648Y-128879741D01*
X146825245Y-129148731D01*
X146957752Y-129396634D01*
X147136077Y-129613923D01*
X147353366Y-129792248D01*
X147601269Y-129924755D01*
X147870259Y-130006352D01*
X148079902Y-130027000D01*
X149520098Y-130027000D01*
X149729741Y-130006352D01*
X149998731Y-129924755D01*
X150246634Y-129792248D01*
X150463923Y-129613923D01*
X150642248Y-129396634D01*
X150774755Y-129148731D01*
X150856352Y-128879741D01*
X150883904Y-128600000D01*
X150856352Y-128320259D01*
X150774755Y-128051269D01*
X150642248Y-127803366D01*
X150463923Y-127586077D01*
X150304550Y-127455283D01*
X150323206Y-127432550D01*
X150353570Y-127375743D01*
X150372268Y-127314103D01*
X150378582Y-127250000D01*
X150378582Y-125750000D01*
X150372268Y-125685897D01*
X150353570Y-125624257D01*
X150323206Y-125567450D01*
X150282343Y-125517657D01*
X150258840Y-125498369D01*
X150369145Y-125389540D01*
X150522142Y-125163868D01*
X150628173Y-124912684D01*
X150642318Y-124841185D01*
X150519656Y-124627000D01*
X148927000Y-124627000D01*
X148927000Y-124647000D01*
X148673000Y-124647000D01*
X148673000Y-124627000D01*
X147080344Y-124627000D01*
X146957682Y-124841185D01*
X146971827Y-124912684D01*
X147077858Y-125163868D01*
X147230855Y-125389540D01*
X147341160Y-125498369D01*
X147317657Y-125517657D01*
X147276794Y-125567450D01*
X147246430Y-125624257D01*
X147227732Y-125685897D01*
X147221418Y-125750000D01*
X147221418Y-127250000D01*
X147227732Y-127314103D01*
X147246430Y-127375743D01*
X147276794Y-127432550D01*
X147295450Y-127455283D01*
X147136077Y-127586077D01*
X146957752Y-127803366D01*
X146825245Y-128051269D01*
X146743648Y-128320259D01*
X146716096Y-128600000D01*
X136078582Y-128600000D01*
X136078582Y-125550000D01*
X136072268Y-125485897D01*
X136053570Y-125424257D01*
X136023206Y-125367450D01*
X135982343Y-125317657D01*
X135932550Y-125276794D01*
X135875743Y-125246430D01*
X135814103Y-125227732D01*
X135750000Y-125221418D01*
X132250000Y-125221418D01*
X132185897Y-125227732D01*
X132124257Y-125246430D01*
X132067450Y-125276794D01*
X132017657Y-125317657D01*
X131976794Y-125367450D01*
X131946430Y-125424257D01*
X131927732Y-125485897D01*
X131921418Y-125550000D01*
X118152000Y-125550000D01*
X118152000Y-121650000D01*
X119621418Y-121650000D01*
X119621418Y-123350000D01*
X119627732Y-123414103D01*
X119646430Y-123475743D01*
X119676794Y-123532550D01*
X119717657Y-123582343D01*
X119767450Y-123623206D01*
X119824257Y-123653570D01*
X119885897Y-123672268D01*
X119950000Y-123678582D01*
X121650000Y-123678582D01*
X121714103Y-123672268D01*
X121775743Y-123653570D01*
X121832550Y-123623206D01*
X121882343Y-123582343D01*
X121923206Y-123532550D01*
X121953570Y-123475743D01*
X121972268Y-123414103D01*
X121978582Y-123350000D01*
X121978582Y-121650000D01*
X121972268Y-121585897D01*
X121953570Y-121524257D01*
X121923206Y-121467450D01*
X121882343Y-121417657D01*
X121832550Y-121376794D01*
X121775743Y-121346430D01*
X121714103Y-121327732D01*
X121650000Y-121321418D01*
X119950000Y-121321418D01*
X119885897Y-121327732D01*
X119824257Y-121346430D01*
X119767450Y-121376794D01*
X119717657Y-121417657D01*
X119676794Y-121467450D01*
X119646430Y-121524257D01*
X119627732Y-121585897D01*
X119621418Y-121650000D01*
X118152000Y-121650000D01*
X118152000Y-119844076D01*
X119623000Y-119844076D01*
X119623000Y-120075924D01*
X119668231Y-120303318D01*
X119756956Y-120517519D01*
X119885764Y-120710294D01*
X120049706Y-120874236D01*
X120242481Y-121003044D01*
X120456682Y-121091769D01*
X120684076Y-121137000D01*
X120915924Y-121137000D01*
X121143318Y-121091769D01*
X121357519Y-121003044D01*
X121550294Y-120874236D01*
X121714236Y-120710294D01*
X121843044Y-120517519D01*
X121931769Y-120303318D01*
X121977000Y-120075924D01*
X121977000Y-119844076D01*
X121931769Y-119616682D01*
X121843044Y-119402481D01*
X121714236Y-119209706D01*
X121550294Y-119045764D01*
X121357519Y-118916956D01*
X121143318Y-118828231D01*
X120915924Y-118783000D01*
X120684076Y-118783000D01*
X120456682Y-118828231D01*
X120242481Y-118916956D01*
X120049706Y-119045764D01*
X119885764Y-119209706D01*
X119756956Y-119402481D01*
X119668231Y-119616682D01*
X119623000Y-119844076D01*
X118152000Y-119844076D01*
X118152000Y-117304076D01*
X119623000Y-117304076D01*
X119623000Y-117535924D01*
X119668231Y-117763318D01*
X119756956Y-117977519D01*
X119885764Y-118170294D01*
X120049706Y-118334236D01*
X120242481Y-118463044D01*
X120456682Y-118551769D01*
X120684076Y-118597000D01*
X120915924Y-118597000D01*
X121143318Y-118551769D01*
X121352297Y-118465207D01*
X132073000Y-118465207D01*
X132073000Y-118844793D01*
X132147053Y-119217085D01*
X132292315Y-119567777D01*
X132503201Y-119883391D01*
X132771609Y-120151799D01*
X133087223Y-120362685D01*
X133437915Y-120507947D01*
X133810207Y-120582000D01*
X134189793Y-120582000D01*
X134562085Y-120507947D01*
X134822691Y-120400000D01*
X146716096Y-120400000D01*
X146743648Y-120679741D01*
X146825245Y-120948731D01*
X146957752Y-121196634D01*
X147136077Y-121413923D01*
X147353366Y-121592248D01*
X147568376Y-121707174D01*
X147534761Y-121734761D01*
X147400174Y-121898756D01*
X147300167Y-122085856D01*
X147238583Y-122288871D01*
X147217789Y-122500000D01*
X147238583Y-122711129D01*
X147300167Y-122914144D01*
X147400174Y-123101244D01*
X147534761Y-123265239D01*
X147589804Y-123310412D01*
X147424939Y-123418972D01*
X147230855Y-123610460D01*
X147077858Y-123836132D01*
X146971827Y-124087316D01*
X146957682Y-124158815D01*
X147080344Y-124373000D01*
X148673000Y-124373000D01*
X148673000Y-124353000D01*
X148927000Y-124353000D01*
X148927000Y-124373000D01*
X150519656Y-124373000D01*
X150570582Y-124284076D01*
X155423000Y-124284076D01*
X155423000Y-124515924D01*
X155468231Y-124743318D01*
X155556956Y-124957519D01*
X155685764Y-125150294D01*
X155849706Y-125314236D01*
X156042481Y-125443044D01*
X156256682Y-125531769D01*
X156484076Y-125577000D01*
X156715924Y-125577000D01*
X156943318Y-125531769D01*
X157157519Y-125443044D01*
X157350294Y-125314236D01*
X157514236Y-125150294D01*
X157643044Y-124957519D01*
X157731769Y-124743318D01*
X157777000Y-124515924D01*
X157777000Y-124284076D01*
X157731769Y-124056682D01*
X157643044Y-123842481D01*
X157514236Y-123649706D01*
X157350294Y-123485764D01*
X157157519Y-123356956D01*
X156943318Y-123268231D01*
X156715924Y-123223000D01*
X156484076Y-123223000D01*
X156256682Y-123268231D01*
X156042481Y-123356956D01*
X155849706Y-123485764D01*
X155685764Y-123649706D01*
X155556956Y-123842481D01*
X155468231Y-124056682D01*
X155423000Y-124284076D01*
X150570582Y-124284076D01*
X150642318Y-124158815D01*
X150628173Y-124087316D01*
X150522142Y-123836132D01*
X150369145Y-123610460D01*
X150175061Y-123418972D01*
X150010196Y-123310412D01*
X150065239Y-123265239D01*
X150199826Y-123101244D01*
X150299833Y-122914144D01*
X150361417Y-122711129D01*
X150382211Y-122500000D01*
X150361417Y-122288871D01*
X150299833Y-122085856D01*
X150199826Y-121898756D01*
X150065239Y-121734761D01*
X150031624Y-121707174D01*
X150246634Y-121592248D01*
X150463923Y-121413923D01*
X150642248Y-121196634D01*
X150774755Y-120948731D01*
X150856352Y-120679741D01*
X150883904Y-120400000D01*
X150856352Y-120120259D01*
X150774755Y-119851269D01*
X150738840Y-119784076D01*
X155423000Y-119784076D01*
X155423000Y-120015924D01*
X155468231Y-120243318D01*
X155556956Y-120457519D01*
X155685764Y-120650294D01*
X155849706Y-120814236D01*
X156042481Y-120943044D01*
X156256682Y-121031769D01*
X156484076Y-121077000D01*
X156715924Y-121077000D01*
X156943318Y-121031769D01*
X157157519Y-120943044D01*
X157350294Y-120814236D01*
X157514236Y-120650294D01*
X157643044Y-120457519D01*
X157731769Y-120243318D01*
X157777000Y-120015924D01*
X157777000Y-119784076D01*
X157731769Y-119556682D01*
X157643044Y-119342481D01*
X157514236Y-119149706D01*
X157350294Y-118985764D01*
X157157519Y-118856956D01*
X156943318Y-118768231D01*
X156715924Y-118723000D01*
X156484076Y-118723000D01*
X156256682Y-118768231D01*
X156042481Y-118856956D01*
X155849706Y-118985764D01*
X155685764Y-119149706D01*
X155556956Y-119342481D01*
X155468231Y-119556682D01*
X155423000Y-119784076D01*
X150738840Y-119784076D01*
X150642248Y-119603366D01*
X150463923Y-119386077D01*
X150246634Y-119207752D01*
X149998731Y-119075245D01*
X149729741Y-118993648D01*
X149520098Y-118973000D01*
X148079902Y-118973000D01*
X147870259Y-118993648D01*
X147601269Y-119075245D01*
X147353366Y-119207752D01*
X147136077Y-119386077D01*
X146957752Y-119603366D01*
X146825245Y-119851269D01*
X146743648Y-120120259D01*
X146716096Y-120400000D01*
X134822691Y-120400000D01*
X134912777Y-120362685D01*
X135228391Y-120151799D01*
X135496799Y-119883391D01*
X135707685Y-119567777D01*
X135852947Y-119217085D01*
X135927000Y-118844793D01*
X135927000Y-118465207D01*
X135852947Y-118092915D01*
X135707685Y-117742223D01*
X135496799Y-117426609D01*
X135228391Y-117158201D01*
X134912777Y-116947315D01*
X134562085Y-116802053D01*
X134189793Y-116728000D01*
X133810207Y-116728000D01*
X133437915Y-116802053D01*
X133087223Y-116947315D01*
X132771609Y-117158201D01*
X132503201Y-117426609D01*
X132292315Y-117742223D01*
X132147053Y-118092915D01*
X132073000Y-118465207D01*
X121352297Y-118465207D01*
X121357519Y-118463044D01*
X121550294Y-118334236D01*
X121714236Y-118170294D01*
X121843044Y-117977519D01*
X121931769Y-117763318D01*
X121977000Y-117535924D01*
X121977000Y-117304076D01*
X121931769Y-117076682D01*
X121843044Y-116862481D01*
X121714236Y-116669706D01*
X121550294Y-116505764D01*
X121357519Y-116376956D01*
X121143318Y-116288231D01*
X120915924Y-116243000D01*
X120684076Y-116243000D01*
X120456682Y-116288231D01*
X120242481Y-116376956D01*
X120049706Y-116505764D01*
X119885764Y-116669706D01*
X119756956Y-116862481D01*
X119668231Y-117076682D01*
X119623000Y-117304076D01*
X118152000Y-117304076D01*
X118152000Y-114764076D01*
X119623000Y-114764076D01*
X119623000Y-114995924D01*
X119668231Y-115223318D01*
X119756956Y-115437519D01*
X119885764Y-115630294D01*
X120049706Y-115794236D01*
X120242481Y-115923044D01*
X120456682Y-116011769D01*
X120684076Y-116057000D01*
X120915924Y-116057000D01*
X121143318Y-116011769D01*
X121357519Y-115923044D01*
X121550294Y-115794236D01*
X121714236Y-115630294D01*
X121843044Y-115437519D01*
X121931769Y-115223318D01*
X121977000Y-114995924D01*
X121977000Y-114764076D01*
X121931769Y-114536682D01*
X121843044Y-114322481D01*
X121714236Y-114129706D01*
X121550294Y-113965764D01*
X121357519Y-113836956D01*
X121143318Y-113748231D01*
X120915924Y-113703000D01*
X120684076Y-113703000D01*
X120456682Y-113748231D01*
X120242481Y-113836956D01*
X120049706Y-113965764D01*
X119885764Y-114129706D01*
X119756956Y-114322481D01*
X119668231Y-114536682D01*
X119623000Y-114764076D01*
X118152000Y-114764076D01*
X118152000Y-112224076D01*
X119623000Y-112224076D01*
X119623000Y-112455924D01*
X119668231Y-112683318D01*
X119756956Y-112897519D01*
X119885764Y-113090294D01*
X120049706Y-113254236D01*
X120242481Y-113383044D01*
X120456682Y-113471769D01*
X120684076Y-113517000D01*
X120915924Y-113517000D01*
X121143318Y-113471769D01*
X121357519Y-113383044D01*
X121550294Y-113254236D01*
X121714236Y-113090294D01*
X121843044Y-112897519D01*
X121931769Y-112683318D01*
X121977000Y-112455924D01*
X121977000Y-112224076D01*
X121931769Y-111996682D01*
X121843044Y-111782481D01*
X121714236Y-111589706D01*
X121550294Y-111425764D01*
X121357519Y-111296956D01*
X121143318Y-111208231D01*
X120915924Y-111163000D01*
X120684076Y-111163000D01*
X120456682Y-111208231D01*
X120242481Y-111296956D01*
X120049706Y-111425764D01*
X119885764Y-111589706D01*
X119756956Y-111782481D01*
X119668231Y-111996682D01*
X119623000Y-112224076D01*
X118152000Y-112224076D01*
X118152000Y-109684076D01*
X119623000Y-109684076D01*
X119623000Y-109915924D01*
X119668231Y-110143318D01*
X119756956Y-110357519D01*
X119885764Y-110550294D01*
X120049706Y-110714236D01*
X120242481Y-110843044D01*
X120456682Y-110931769D01*
X120684076Y-110977000D01*
X120915924Y-110977000D01*
X121143318Y-110931769D01*
X121357519Y-110843044D01*
X121550294Y-110714236D01*
X121714236Y-110550294D01*
X121843044Y-110357519D01*
X121931769Y-110143318D01*
X121977000Y-109915924D01*
X121977000Y-109684076D01*
X121931769Y-109456682D01*
X121843044Y-109242481D01*
X121714236Y-109049706D01*
X121550294Y-108885764D01*
X121357519Y-108756956D01*
X121143318Y-108668231D01*
X120915924Y-108623000D01*
X120684076Y-108623000D01*
X120456682Y-108668231D01*
X120242481Y-108756956D01*
X120049706Y-108885764D01*
X119885764Y-109049706D01*
X119756956Y-109242481D01*
X119668231Y-109456682D01*
X119623000Y-109684076D01*
X118152000Y-109684076D01*
X118152000Y-96910000D01*
X120311928Y-96910000D01*
X120324188Y-97034482D01*
X120360498Y-97154180D01*
X120419463Y-97264494D01*
X120498815Y-97361185D01*
X120595506Y-97440537D01*
X120705820Y-97499502D01*
X120825518Y-97535812D01*
X120950000Y-97548072D01*
X121514250Y-97545000D01*
X121673000Y-97386250D01*
X121673000Y-96187000D01*
X121927000Y-96187000D01*
X121927000Y-97386250D01*
X122085750Y-97545000D01*
X122650000Y-97548072D01*
X122774482Y-97535812D01*
X122894180Y-97499502D01*
X123004494Y-97440537D01*
X123101185Y-97361185D01*
X123180537Y-97264494D01*
X123239502Y-97154180D01*
X123275812Y-97034482D01*
X123288072Y-96910000D01*
X123285000Y-96345750D01*
X123126250Y-96187000D01*
X121927000Y-96187000D01*
X121673000Y-96187000D01*
X120473750Y-96187000D01*
X120315000Y-96345750D01*
X120311928Y-96910000D01*
X118152000Y-96910000D01*
X118152000Y-95210000D01*
X120311928Y-95210000D01*
X120315000Y-95774250D01*
X120473750Y-95933000D01*
X121673000Y-95933000D01*
X121673000Y-95913000D01*
X121927000Y-95913000D01*
X121927000Y-95933000D01*
X123126250Y-95933000D01*
X123285000Y-95774250D01*
X123288072Y-95210000D01*
X123275812Y-95085518D01*
X123239502Y-94965820D01*
X123180537Y-94855506D01*
X123101185Y-94758815D01*
X123004494Y-94679463D01*
X122894180Y-94620498D01*
X122774482Y-94584188D01*
X122650000Y-94571928D01*
X122331890Y-94573660D01*
X122357519Y-94563044D01*
X122550294Y-94434236D01*
X122714236Y-94270294D01*
X122843044Y-94077519D01*
X122931769Y-93863318D01*
X122977000Y-93635924D01*
X122977000Y-93404076D01*
X122931769Y-93176682D01*
X122843044Y-92962481D01*
X122714236Y-92769706D01*
X122550294Y-92605764D01*
X122357519Y-92476956D01*
X122143318Y-92388231D01*
X121915924Y-92343000D01*
X121684076Y-92343000D01*
X121456682Y-92388231D01*
X121242481Y-92476956D01*
X121049706Y-92605764D01*
X120885764Y-92769706D01*
X120756956Y-92962481D01*
X120668231Y-93176682D01*
X120623000Y-93404076D01*
X120623000Y-93635924D01*
X120668231Y-93863318D01*
X120756956Y-94077519D01*
X120885764Y-94270294D01*
X121049706Y-94434236D01*
X121242481Y-94563044D01*
X121268110Y-94573660D01*
X120950000Y-94571928D01*
X120825518Y-94584188D01*
X120705820Y-94620498D01*
X120595506Y-94679463D01*
X120498815Y-94758815D01*
X120419463Y-94855506D01*
X120360498Y-94965820D01*
X120324188Y-95085518D01*
X120311928Y-95210000D01*
X118152000Y-95210000D01*
X118152000Y-90864076D01*
X120623000Y-90864076D01*
X120623000Y-91095924D01*
X120668231Y-91323318D01*
X120756956Y-91537519D01*
X120885764Y-91730294D01*
X121049706Y-91894236D01*
X121242481Y-92023044D01*
X121456682Y-92111769D01*
X121684076Y-92157000D01*
X121915924Y-92157000D01*
X122143318Y-92111769D01*
X122357519Y-92023044D01*
X122550294Y-91894236D01*
X122714236Y-91730294D01*
X122843044Y-91537519D01*
X122931769Y-91323318D01*
X122977000Y-91095924D01*
X122977000Y-90864076D01*
X122931769Y-90636682D01*
X122843044Y-90422481D01*
X122714236Y-90229706D01*
X122550294Y-90065764D01*
X122357519Y-89936956D01*
X122143318Y-89848231D01*
X121915924Y-89803000D01*
X121684076Y-89803000D01*
X121456682Y-89848231D01*
X121242481Y-89936956D01*
X121049706Y-90065764D01*
X120885764Y-90229706D01*
X120756956Y-90422481D01*
X120668231Y-90636682D01*
X120623000Y-90864076D01*
X118152000Y-90864076D01*
X118152000Y-83244076D01*
X120623000Y-83244076D01*
X120623000Y-83475924D01*
X120668231Y-83703318D01*
X120756956Y-83917519D01*
X120885764Y-84110294D01*
X121049706Y-84274236D01*
X121242481Y-84403044D01*
X121456682Y-84491769D01*
X121684076Y-84537000D01*
X121915924Y-84537000D01*
X122143318Y-84491769D01*
X122357519Y-84403044D01*
X122550294Y-84274236D01*
X122714236Y-84110294D01*
X122843044Y-83917519D01*
X122931769Y-83703318D01*
X122977000Y-83475924D01*
X122977000Y-83244076D01*
X122931769Y-83016682D01*
X122843044Y-82802481D01*
X122714236Y-82609706D01*
X122550294Y-82445764D01*
X122357519Y-82316956D01*
X122143318Y-82228231D01*
X121915924Y-82183000D01*
X121684076Y-82183000D01*
X121456682Y-82228231D01*
X121242481Y-82316956D01*
X121049706Y-82445764D01*
X120885764Y-82609706D01*
X120756956Y-82802481D01*
X120668231Y-83016682D01*
X120623000Y-83244076D01*
X118152000Y-83244076D01*
X118152000Y-80704076D01*
X120623000Y-80704076D01*
X120623000Y-80935924D01*
X120668231Y-81163318D01*
X120756956Y-81377519D01*
X120885764Y-81570294D01*
X121049706Y-81734236D01*
X121242481Y-81863044D01*
X121456682Y-81951769D01*
X121684076Y-81997000D01*
X121915924Y-81997000D01*
X122143318Y-81951769D01*
X122357519Y-81863044D01*
X122550294Y-81734236D01*
X122714236Y-81570294D01*
X122843044Y-81377519D01*
X122931769Y-81163318D01*
X122977000Y-80935924D01*
X122977000Y-80704076D01*
X122931769Y-80476682D01*
X122843044Y-80262481D01*
X122714236Y-80069706D01*
X122550294Y-79905764D01*
X122357519Y-79776956D01*
X122143318Y-79688231D01*
X121915924Y-79643000D01*
X121684076Y-79643000D01*
X121456682Y-79688231D01*
X121242481Y-79776956D01*
X121049706Y-79905764D01*
X120885764Y-80069706D01*
X120756956Y-80262481D01*
X120668231Y-80476682D01*
X120623000Y-80704076D01*
X118152000Y-80704076D01*
X118152000Y-75624076D01*
X120623000Y-75624076D01*
X120623000Y-75855924D01*
X120668231Y-76083318D01*
X120756956Y-76297519D01*
X120885764Y-76490294D01*
X121049706Y-76654236D01*
X121242481Y-76783044D01*
X121456682Y-76871769D01*
X121684076Y-76917000D01*
X121915924Y-76917000D01*
X122143318Y-76871769D01*
X122357519Y-76783044D01*
X122550294Y-76654236D01*
X122714236Y-76490294D01*
X122843044Y-76297519D01*
X122886751Y-76192000D01*
X162942650Y-76192000D01*
X163035409Y-76415938D01*
X163191576Y-76649660D01*
X163390340Y-76848424D01*
X163624062Y-77004591D01*
X163637120Y-77010000D01*
X163624062Y-77015409D01*
X163390340Y-77171576D01*
X163191576Y-77370340D01*
X163035409Y-77604062D01*
X162942650Y-77828000D01*
X122886751Y-77828000D01*
X122843044Y-77722481D01*
X122714236Y-77529706D01*
X122550294Y-77365764D01*
X122357519Y-77236956D01*
X122143318Y-77148231D01*
X121915924Y-77103000D01*
X121684076Y-77103000D01*
X121456682Y-77148231D01*
X121242481Y-77236956D01*
X121049706Y-77365764D01*
X120885764Y-77529706D01*
X120756956Y-77722481D01*
X120668231Y-77936682D01*
X120623000Y-78164076D01*
X120623000Y-78395924D01*
X120668231Y-78623318D01*
X120756956Y-78837519D01*
X120885764Y-79030294D01*
X121049706Y-79194236D01*
X121242481Y-79323044D01*
X121456682Y-79411769D01*
X121684076Y-79457000D01*
X121915924Y-79457000D01*
X122143318Y-79411769D01*
X122357519Y-79323044D01*
X122550294Y-79194236D01*
X122714236Y-79030294D01*
X122843044Y-78837519D01*
X122886751Y-78732000D01*
X162942650Y-78732000D01*
X163035409Y-78955938D01*
X163191576Y-79189660D01*
X163390340Y-79388424D01*
X163624062Y-79544591D01*
X163637120Y-79550000D01*
X163624062Y-79555409D01*
X163390340Y-79711576D01*
X163191576Y-79910340D01*
X163035409Y-80144062D01*
X162942650Y-80368000D01*
X126902205Y-80368000D01*
X126880000Y-80365813D01*
X126791392Y-80374540D01*
X126706190Y-80400386D01*
X126627667Y-80442357D01*
X126558841Y-80498841D01*
X126544681Y-80516095D01*
X122248838Y-84811939D01*
X122143318Y-84768231D01*
X121915924Y-84723000D01*
X121684076Y-84723000D01*
X121456682Y-84768231D01*
X121242481Y-84856956D01*
X121049706Y-84985764D01*
X120885764Y-85149706D01*
X120756956Y-85342481D01*
X120668231Y-85556682D01*
X120623000Y-85784076D01*
X120623000Y-86015924D01*
X120668231Y-86243318D01*
X120756956Y-86457519D01*
X120885764Y-86650294D01*
X121049706Y-86814236D01*
X121242481Y-86943044D01*
X121456682Y-87031769D01*
X121684076Y-87077000D01*
X121915924Y-87077000D01*
X122143318Y-87031769D01*
X122357519Y-86943044D01*
X122550294Y-86814236D01*
X122714236Y-86650294D01*
X122843044Y-86457519D01*
X122931769Y-86243318D01*
X122977000Y-86015924D01*
X122977000Y-85784076D01*
X122931769Y-85556682D01*
X122888061Y-85451162D01*
X127067224Y-81272000D01*
X162942650Y-81272000D01*
X163035409Y-81495938D01*
X163191576Y-81729660D01*
X163390340Y-81928424D01*
X163624062Y-82084591D01*
X163637120Y-82090000D01*
X163624062Y-82095409D01*
X163390340Y-82251576D01*
X163191576Y-82450340D01*
X163035409Y-82684062D01*
X162942650Y-82908000D01*
X126902204Y-82908000D01*
X126879999Y-82905813D01*
X126791393Y-82914540D01*
X126706190Y-82940386D01*
X126627667Y-82982357D01*
X126558841Y-83038841D01*
X126544681Y-83056095D01*
X122248838Y-87351939D01*
X122143318Y-87308231D01*
X121915924Y-87263000D01*
X121684076Y-87263000D01*
X121456682Y-87308231D01*
X121242481Y-87396956D01*
X121049706Y-87525764D01*
X120885764Y-87689706D01*
X120756956Y-87882481D01*
X120668231Y-88096682D01*
X120623000Y-88324076D01*
X120623000Y-88555924D01*
X120668231Y-88783318D01*
X120756956Y-88997519D01*
X120885764Y-89190294D01*
X121049706Y-89354236D01*
X121242481Y-89483044D01*
X121456682Y-89571769D01*
X121684076Y-89617000D01*
X121915924Y-89617000D01*
X122143318Y-89571769D01*
X122248838Y-89528061D01*
X147024681Y-114303905D01*
X147038841Y-114321159D01*
X147107667Y-114377643D01*
X147172054Y-114412058D01*
X147186190Y-114419614D01*
X147271392Y-114445460D01*
X147360000Y-114454187D01*
X147382205Y-114452000D01*
X149727661Y-114452000D01*
X149735302Y-114463436D01*
X149836564Y-114564698D01*
X149955636Y-114644259D01*
X150087942Y-114699062D01*
X150228397Y-114727000D01*
X150371603Y-114727000D01*
X150512058Y-114699062D01*
X150644364Y-114644259D01*
X150763436Y-114564698D01*
X150864698Y-114463436D01*
X150944259Y-114344364D01*
X150999062Y-114212058D01*
X151027000Y-114071603D01*
X151027000Y-113928397D01*
X150999062Y-113787942D01*
X150944259Y-113655636D01*
X150864698Y-113536564D01*
X150780134Y-113452000D01*
X150827661Y-113452000D01*
X150835302Y-113463436D01*
X150936564Y-113564698D01*
X151055636Y-113644259D01*
X151187942Y-113699062D01*
X151328397Y-113727000D01*
X151471603Y-113727000D01*
X151612058Y-113699062D01*
X151744364Y-113644259D01*
X151863436Y-113564698D01*
X151964698Y-113463436D01*
X152033409Y-113360603D01*
X152035302Y-113363436D01*
X152136564Y-113464698D01*
X152255636Y-113544259D01*
X152387942Y-113599062D01*
X152481154Y-113617603D01*
X152455741Y-113655636D01*
X152400938Y-113787942D01*
X152373000Y-113928397D01*
X152373000Y-114071603D01*
X152400938Y-114212058D01*
X152455741Y-114344364D01*
X152535302Y-114463436D01*
X152636564Y-114564698D01*
X152755636Y-114644259D01*
X152887942Y-114699062D01*
X153028397Y-114727000D01*
X153171603Y-114727000D01*
X153185094Y-114724317D01*
X162155610Y-123694834D01*
X162056956Y-123842481D01*
X161968231Y-124056682D01*
X161923000Y-124284076D01*
X161923000Y-124515924D01*
X161968231Y-124743318D01*
X162056956Y-124957519D01*
X162185764Y-125150294D01*
X162349706Y-125314236D01*
X162542481Y-125443044D01*
X162756682Y-125531769D01*
X162984076Y-125577000D01*
X163215924Y-125577000D01*
X163443318Y-125531769D01*
X163657519Y-125443044D01*
X163850294Y-125314236D01*
X164014236Y-125150294D01*
X164143044Y-124957519D01*
X164231769Y-124743318D01*
X164277000Y-124515924D01*
X164277000Y-124284076D01*
X164231769Y-124056682D01*
X164143044Y-123842481D01*
X164014236Y-123649706D01*
X163850294Y-123485764D01*
X163657519Y-123356956D01*
X163443318Y-123268231D01*
X163215924Y-123223000D01*
X162984076Y-123223000D01*
X162965849Y-123226625D01*
X159523300Y-119784076D01*
X161923000Y-119784076D01*
X161923000Y-120015924D01*
X161968231Y-120243318D01*
X162056956Y-120457519D01*
X162185764Y-120650294D01*
X162349706Y-120814236D01*
X162542481Y-120943044D01*
X162756682Y-121031769D01*
X162984076Y-121077000D01*
X163215924Y-121077000D01*
X163443318Y-121031769D01*
X163657519Y-120943044D01*
X163850294Y-120814236D01*
X164014236Y-120650294D01*
X164143044Y-120457519D01*
X164231769Y-120243318D01*
X164277000Y-120015924D01*
X164277000Y-119784076D01*
X164231769Y-119556682D01*
X164143044Y-119342481D01*
X164014236Y-119149706D01*
X163850294Y-118985764D01*
X163657519Y-118856956D01*
X163443318Y-118768231D01*
X163215924Y-118723000D01*
X162984076Y-118723000D01*
X162756682Y-118768231D01*
X162542481Y-118856956D01*
X162349706Y-118985764D01*
X162185764Y-119149706D01*
X162056956Y-119342481D01*
X161968231Y-119556682D01*
X161923000Y-119784076D01*
X159523300Y-119784076D01*
X153824317Y-114085094D01*
X153827000Y-114071603D01*
X153827000Y-113928397D01*
X153799062Y-113787942D01*
X153744259Y-113655636D01*
X153664698Y-113536564D01*
X153563436Y-113435302D01*
X153444364Y-113355741D01*
X153312058Y-113300938D01*
X153218846Y-113282397D01*
X153244259Y-113244364D01*
X153299062Y-113112058D01*
X153327000Y-112971603D01*
X153327000Y-112866224D01*
X154175683Y-113714907D01*
X154173000Y-113728397D01*
X154173000Y-113871603D01*
X154200938Y-114012058D01*
X154255741Y-114144364D01*
X154335302Y-114263436D01*
X154436564Y-114364698D01*
X154555636Y-114444259D01*
X154687942Y-114499062D01*
X154828397Y-114527000D01*
X154971603Y-114527000D01*
X155112058Y-114499062D01*
X155244364Y-114444259D01*
X155363436Y-114364698D01*
X155464698Y-114263436D01*
X155544259Y-114144364D01*
X155599062Y-114012058D01*
X155627000Y-113871603D01*
X155627000Y-113728397D01*
X155599062Y-113587942D01*
X155544259Y-113455636D01*
X155464698Y-113336564D01*
X155363436Y-113235302D01*
X155244364Y-113155741D01*
X155112058Y-113100938D01*
X154971603Y-113073000D01*
X154828397Y-113073000D01*
X154814907Y-113075683D01*
X146967621Y-105228397D01*
X149973000Y-105228397D01*
X149973000Y-105371603D01*
X150000938Y-105512058D01*
X150055741Y-105644364D01*
X150135302Y-105763436D01*
X150236564Y-105864698D01*
X150355636Y-105944259D01*
X150487942Y-105999062D01*
X150628397Y-106027000D01*
X150771603Y-106027000D01*
X150912058Y-105999062D01*
X151044364Y-105944259D01*
X151163436Y-105864698D01*
X151264698Y-105763436D01*
X151344259Y-105644364D01*
X151399062Y-105512058D01*
X151427000Y-105371603D01*
X151427000Y-105228397D01*
X151399062Y-105087942D01*
X151368918Y-105015169D01*
X151428397Y-105027000D01*
X151571603Y-105027000D01*
X151712058Y-104999062D01*
X151844364Y-104944259D01*
X151963436Y-104864698D01*
X152064698Y-104763436D01*
X152144259Y-104644364D01*
X152199062Y-104512058D01*
X152227000Y-104371603D01*
X152227000Y-104228397D01*
X152199062Y-104087942D01*
X152144259Y-103955636D01*
X152064698Y-103836564D01*
X151963436Y-103735302D01*
X151952000Y-103727661D01*
X151952000Y-100572339D01*
X151963436Y-100564698D01*
X152064698Y-100463436D01*
X152144259Y-100344364D01*
X152199062Y-100212058D01*
X152227000Y-100071603D01*
X152227000Y-99928397D01*
X152199062Y-99787942D01*
X152144259Y-99655636D01*
X152064698Y-99536564D01*
X151963436Y-99435302D01*
X151844364Y-99355741D01*
X151712058Y-99300938D01*
X151571603Y-99273000D01*
X151428397Y-99273000D01*
X151287942Y-99300938D01*
X151155636Y-99355741D01*
X151152000Y-99358170D01*
X151152000Y-98987223D01*
X151414907Y-98724317D01*
X151428397Y-98727000D01*
X151571603Y-98727000D01*
X151712058Y-98699062D01*
X151844364Y-98644259D01*
X151963436Y-98564698D01*
X152064698Y-98463436D01*
X152144259Y-98344364D01*
X152199062Y-98212058D01*
X152227000Y-98071603D01*
X152227000Y-97928397D01*
X152199062Y-97787942D01*
X152144259Y-97655636D01*
X152064698Y-97536564D01*
X151963436Y-97435302D01*
X151844364Y-97355741D01*
X151712058Y-97300938D01*
X151571603Y-97273000D01*
X151428397Y-97273000D01*
X151287942Y-97300938D01*
X151155636Y-97355741D01*
X151036564Y-97435302D01*
X150935302Y-97536564D01*
X150855741Y-97655636D01*
X150800938Y-97787942D01*
X150773000Y-97928397D01*
X150773000Y-98071603D01*
X150775683Y-98085093D01*
X150396100Y-98464677D01*
X150378841Y-98478841D01*
X150322357Y-98547668D01*
X150280387Y-98626190D01*
X150280386Y-98626191D01*
X150254540Y-98711393D01*
X150245813Y-98800000D01*
X150248000Y-98822205D01*
X150248001Y-104727660D01*
X150236564Y-104735302D01*
X150135302Y-104836564D01*
X150055741Y-104955636D01*
X150000938Y-105087942D01*
X149973000Y-105228397D01*
X146967621Y-105228397D01*
X145635321Y-103896098D01*
X145621157Y-103878839D01*
X145552331Y-103822355D01*
X145473808Y-103780384D01*
X145388605Y-103754538D01*
X145322203Y-103747998D01*
X145299998Y-103745811D01*
X145277793Y-103747998D01*
X143072339Y-103747998D01*
X143064698Y-103736562D01*
X142963436Y-103635300D01*
X142844364Y-103555739D01*
X142712058Y-103500936D01*
X142571603Y-103472998D01*
X142428397Y-103472998D01*
X142287942Y-103500936D01*
X142155636Y-103555739D01*
X142036564Y-103635300D01*
X141935302Y-103736562D01*
X141855741Y-103855634D01*
X141800938Y-103987940D01*
X141773000Y-104128395D01*
X141773000Y-104271601D01*
X141800938Y-104412056D01*
X141855741Y-104544362D01*
X141935302Y-104663434D01*
X142036564Y-104764696D01*
X142089399Y-104799999D01*
X142036564Y-104835302D01*
X141935302Y-104936564D01*
X141855741Y-105055636D01*
X141800938Y-105187942D01*
X141773000Y-105328397D01*
X141773000Y-105471603D01*
X141800938Y-105612058D01*
X141855741Y-105744364D01*
X141935302Y-105863436D01*
X142036564Y-105964698D01*
X142089397Y-106000000D01*
X142036564Y-106035302D01*
X141935302Y-106136564D01*
X141855741Y-106255636D01*
X141800938Y-106387942D01*
X141773000Y-106528397D01*
X141773000Y-106671603D01*
X141800938Y-106812058D01*
X141855741Y-106944364D01*
X141935302Y-107063436D01*
X142036564Y-107164698D01*
X142155636Y-107244259D01*
X142287942Y-107299062D01*
X142428397Y-107327000D01*
X142571603Y-107327000D01*
X142585094Y-107324317D01*
X148564681Y-113303905D01*
X148578841Y-113321159D01*
X148647667Y-113377643D01*
X148657772Y-113383044D01*
X148726190Y-113419614D01*
X148811392Y-113445460D01*
X148900000Y-113454187D01*
X148922205Y-113452000D01*
X149819866Y-113452000D01*
X149735302Y-113536564D01*
X149727661Y-113548000D01*
X147547224Y-113548000D01*
X123539224Y-89540000D01*
X162561928Y-89540000D01*
X162574188Y-89664482D01*
X162610498Y-89784180D01*
X162669463Y-89894494D01*
X162748815Y-89991185D01*
X162845506Y-90070537D01*
X162955820Y-90129502D01*
X163075518Y-90165812D01*
X163200000Y-90178072D01*
X164014250Y-90175000D01*
X164173000Y-90016250D01*
X164173000Y-88567000D01*
X162723750Y-88567000D01*
X162565000Y-88725750D01*
X162561928Y-89540000D01*
X123539224Y-89540000D01*
X122888061Y-88888838D01*
X122931769Y-88783318D01*
X122977000Y-88555924D01*
X122977000Y-88324076D01*
X122931769Y-88096682D01*
X122888061Y-87991162D01*
X127067224Y-83812000D01*
X162942650Y-83812000D01*
X163035409Y-84035938D01*
X163191576Y-84269660D01*
X163390340Y-84468424D01*
X163624062Y-84624591D01*
X163637120Y-84630000D01*
X163624062Y-84635409D01*
X163390340Y-84791576D01*
X163191576Y-84990340D01*
X163035409Y-85224062D01*
X162927838Y-85483759D01*
X162873000Y-85759453D01*
X162873000Y-86040547D01*
X162927838Y-86316241D01*
X163035409Y-86575938D01*
X163124557Y-86709358D01*
X163075518Y-86714188D01*
X162955820Y-86750498D01*
X162845506Y-86809463D01*
X162748815Y-86888815D01*
X162669463Y-86985506D01*
X162610498Y-87095820D01*
X162574188Y-87215518D01*
X162561928Y-87340000D01*
X162565000Y-88154250D01*
X162723750Y-88313000D01*
X164173000Y-88313000D01*
X164173000Y-88293000D01*
X164427000Y-88293000D01*
X164427000Y-88313000D01*
X164447000Y-88313000D01*
X164447000Y-88567000D01*
X164427000Y-88567000D01*
X164427000Y-90016250D01*
X164585750Y-90175000D01*
X165400000Y-90178072D01*
X165401891Y-90177886D01*
X165331777Y-90248000D01*
X163722205Y-90248000D01*
X163700000Y-90245813D01*
X163611392Y-90254540D01*
X163549922Y-90273187D01*
X163526190Y-90280386D01*
X163447667Y-90322357D01*
X163378841Y-90378841D01*
X163364681Y-90396095D01*
X158396096Y-95364681D01*
X158378842Y-95378841D01*
X158322358Y-95447667D01*
X158280386Y-95526191D01*
X158254540Y-95611393D01*
X158245813Y-95700000D01*
X158248001Y-95722215D01*
X158248000Y-113488992D01*
X158187942Y-113500938D01*
X158055636Y-113555741D01*
X157936564Y-113635302D01*
X157835302Y-113736564D01*
X157755741Y-113855636D01*
X157700938Y-113987942D01*
X157673000Y-114128397D01*
X157673000Y-114271603D01*
X157700938Y-114412058D01*
X157755741Y-114544364D01*
X157835302Y-114663436D01*
X157936564Y-114764698D01*
X158055636Y-114844259D01*
X158187942Y-114899062D01*
X158328397Y-114927000D01*
X158471603Y-114927000D01*
X158612058Y-114899062D01*
X158744364Y-114844259D01*
X158863436Y-114764698D01*
X158964698Y-114663436D01*
X159044259Y-114544364D01*
X159099062Y-114412058D01*
X159127000Y-114271603D01*
X159127000Y-114128397D01*
X159117084Y-114078544D01*
X159119614Y-114073810D01*
X159145460Y-113988607D01*
X159145460Y-113988606D01*
X159154187Y-113900001D01*
X159152000Y-113877796D01*
X159152000Y-95887223D01*
X163021441Y-92017782D01*
X162927838Y-92243759D01*
X162873000Y-92519453D01*
X162873000Y-92800547D01*
X162927838Y-93076241D01*
X163035409Y-93335938D01*
X163191576Y-93569660D01*
X163390340Y-93768424D01*
X163394821Y-93771418D01*
X163200000Y-93771418D01*
X163135897Y-93777732D01*
X163074257Y-93796430D01*
X163017450Y-93826794D01*
X162967657Y-93867657D01*
X162926794Y-93917450D01*
X162896430Y-93974257D01*
X162877732Y-94035897D01*
X162871418Y-94100000D01*
X162871418Y-96300000D01*
X162877732Y-96364103D01*
X162896430Y-96425743D01*
X162926794Y-96482550D01*
X162967657Y-96532343D01*
X163017450Y-96573206D01*
X163074257Y-96603570D01*
X163135897Y-96622268D01*
X163200000Y-96628582D01*
X165400000Y-96628582D01*
X165464103Y-96622268D01*
X165525743Y-96603570D01*
X165582550Y-96573206D01*
X165632343Y-96532343D01*
X165673206Y-96482550D01*
X165703570Y-96425743D01*
X165722268Y-96364103D01*
X165728582Y-96300000D01*
X165728582Y-95113623D01*
X165963000Y-95113623D01*
X165963000Y-95286377D01*
X165996703Y-95455811D01*
X166062813Y-95615415D01*
X166158790Y-95759055D01*
X166280945Y-95881210D01*
X166424585Y-95977187D01*
X166584189Y-96043297D01*
X166753623Y-96077000D01*
X166926377Y-96077000D01*
X167095811Y-96043297D01*
X167255415Y-95977187D01*
X167399055Y-95881210D01*
X167521210Y-95759055D01*
X167617187Y-95615415D01*
X167683297Y-95455811D01*
X167717000Y-95286377D01*
X167717000Y-95113623D01*
X167683297Y-94944189D01*
X167617187Y-94784585D01*
X167521210Y-94640945D01*
X167399055Y-94518790D01*
X167255415Y-94422813D01*
X167095811Y-94356703D01*
X166926377Y-94323000D01*
X166753623Y-94323000D01*
X166584189Y-94356703D01*
X166424585Y-94422813D01*
X166280945Y-94518790D01*
X166158790Y-94640945D01*
X166062813Y-94784585D01*
X165996703Y-94944189D01*
X165963000Y-95113623D01*
X165728582Y-95113623D01*
X165728582Y-94100000D01*
X165722268Y-94035897D01*
X165703570Y-93974257D01*
X165673206Y-93917450D01*
X165632343Y-93867657D01*
X165582550Y-93826794D01*
X165525743Y-93796430D01*
X165464103Y-93777732D01*
X165400000Y-93771418D01*
X165205179Y-93771418D01*
X165209660Y-93768424D01*
X165408424Y-93569660D01*
X165564591Y-93335938D01*
X165672162Y-93076241D01*
X165727000Y-92800547D01*
X165727000Y-92573623D01*
X165963000Y-92573623D01*
X165963000Y-92746377D01*
X165996703Y-92915811D01*
X166062813Y-93075415D01*
X166158790Y-93219055D01*
X166280945Y-93341210D01*
X166424585Y-93437187D01*
X166584189Y-93503297D01*
X166753623Y-93537000D01*
X166926377Y-93537000D01*
X167095811Y-93503297D01*
X167255415Y-93437187D01*
X167399055Y-93341210D01*
X167521210Y-93219055D01*
X167617187Y-93075415D01*
X167683297Y-92915811D01*
X167717000Y-92746377D01*
X167717000Y-92573623D01*
X167683297Y-92404189D01*
X167617187Y-92244585D01*
X167521210Y-92100945D01*
X167399055Y-91978790D01*
X167255415Y-91882813D01*
X167095811Y-91816703D01*
X166926377Y-91783000D01*
X166753623Y-91783000D01*
X166584189Y-91816703D01*
X166424585Y-91882813D01*
X166280945Y-91978790D01*
X166158790Y-92100945D01*
X166062813Y-92244585D01*
X165996703Y-92404189D01*
X165963000Y-92573623D01*
X165727000Y-92573623D01*
X165727000Y-92519453D01*
X165672162Y-92243759D01*
X165564591Y-91984062D01*
X165408424Y-91750340D01*
X165209660Y-91551576D01*
X164975938Y-91395409D01*
X164716241Y-91287838D01*
X164440547Y-91233000D01*
X164159453Y-91233000D01*
X163883759Y-91287838D01*
X163657783Y-91381441D01*
X163887224Y-91152000D01*
X165496795Y-91152000D01*
X165519000Y-91154187D01*
X165541205Y-91152000D01*
X165607607Y-91145460D01*
X165692810Y-91119614D01*
X165771333Y-91077643D01*
X165840159Y-91021159D01*
X165854323Y-91003900D01*
X166703911Y-90154313D01*
X166721159Y-90140159D01*
X166777643Y-90071333D01*
X166819614Y-89992810D01*
X166845460Y-89907607D01*
X166852000Y-89841205D01*
X166852000Y-89841204D01*
X166854187Y-89819001D01*
X166852000Y-89796796D01*
X166852000Y-74822204D01*
X166854187Y-74799999D01*
X166845460Y-74711392D01*
X166839444Y-74691562D01*
X166819614Y-74626190D01*
X166777643Y-74547667D01*
X166721159Y-74478841D01*
X166703910Y-74464685D01*
X165835323Y-73596100D01*
X165821159Y-73578841D01*
X165752333Y-73522357D01*
X165673810Y-73480386D01*
X165588607Y-73454540D01*
X165522205Y-73448000D01*
X165500000Y-73445813D01*
X165477795Y-73448000D01*
X164072339Y-73448000D01*
X164064698Y-73436564D01*
X163963436Y-73335302D01*
X163844364Y-73255741D01*
X163712058Y-73200938D01*
X163571603Y-73173000D01*
X163428397Y-73173000D01*
X163287942Y-73200938D01*
X163155636Y-73255741D01*
X163036564Y-73335302D01*
X162935302Y-73436564D01*
X162855741Y-73555636D01*
X162800938Y-73687942D01*
X162773000Y-73828397D01*
X162773000Y-73971603D01*
X162800938Y-74112058D01*
X162855741Y-74244364D01*
X162935302Y-74363436D01*
X163036564Y-74464698D01*
X163155636Y-74544259D01*
X163287942Y-74599062D01*
X163404348Y-74622216D01*
X163390340Y-74631576D01*
X163191576Y-74830340D01*
X163035409Y-75064062D01*
X162942650Y-75288000D01*
X122886751Y-75288000D01*
X122843044Y-75182481D01*
X122714236Y-74989706D01*
X122550294Y-74825764D01*
X122357519Y-74696956D01*
X122143318Y-74608231D01*
X121915924Y-74563000D01*
X121684076Y-74563000D01*
X121456682Y-74608231D01*
X121242481Y-74696956D01*
X121049706Y-74825764D01*
X120885764Y-74989706D01*
X120756956Y-75182481D01*
X120668231Y-75396682D01*
X120623000Y-75624076D01*
X118152000Y-75624076D01*
X118152000Y-70424076D01*
X145943000Y-70424076D01*
X145943000Y-70655924D01*
X145988231Y-70883318D01*
X146076956Y-71097519D01*
X146205764Y-71290294D01*
X146369706Y-71454236D01*
X146562481Y-71583044D01*
X146776682Y-71671769D01*
X147004076Y-71717000D01*
X147235924Y-71717000D01*
X147463318Y-71671769D01*
X147677519Y-71583044D01*
X147870294Y-71454236D01*
X148034236Y-71290294D01*
X148163044Y-71097519D01*
X148251769Y-70883318D01*
X148297000Y-70655924D01*
X148297000Y-70424076D01*
X148483000Y-70424076D01*
X148483000Y-70655924D01*
X148528231Y-70883318D01*
X148616956Y-71097519D01*
X148745764Y-71290294D01*
X148909706Y-71454236D01*
X149102481Y-71583044D01*
X149316682Y-71671769D01*
X149544076Y-71717000D01*
X149775924Y-71717000D01*
X150003318Y-71671769D01*
X150217519Y-71583044D01*
X150410294Y-71454236D01*
X150574236Y-71290294D01*
X150703044Y-71097519D01*
X150771264Y-70932821D01*
X150855843Y-71171252D01*
X151004822Y-71421355D01*
X151199731Y-71637588D01*
X151433080Y-71811641D01*
X151695901Y-71936825D01*
X151843110Y-71981476D01*
X152073000Y-71860155D01*
X152073000Y-70667000D01*
X152327000Y-70667000D01*
X152327000Y-71860155D01*
X152556890Y-71981476D01*
X152704099Y-71936825D01*
X152966920Y-71811641D01*
X153200269Y-71637588D01*
X153395178Y-71421355D01*
X153544157Y-71171252D01*
X153641481Y-70896891D01*
X153520814Y-70667000D01*
X152327000Y-70667000D01*
X152073000Y-70667000D01*
X152053000Y-70667000D01*
X152053000Y-70413000D01*
X152073000Y-70413000D01*
X152073000Y-70393000D01*
X152327000Y-70393000D01*
X152327000Y-70413000D01*
X153520814Y-70413000D01*
X153641481Y-70183109D01*
X153544157Y-69908748D01*
X153395178Y-69658645D01*
X153200269Y-69442412D01*
X152966920Y-69268359D01*
X152778435Y-69178582D01*
X153050000Y-69178582D01*
X153114103Y-69172268D01*
X153175743Y-69153570D01*
X153232550Y-69123206D01*
X153282343Y-69082343D01*
X153323206Y-69032550D01*
X153353570Y-68975743D01*
X153372268Y-68914103D01*
X153378582Y-68850000D01*
X153378582Y-67150000D01*
X153372268Y-67085897D01*
X153353570Y-67024257D01*
X153323206Y-66967450D01*
X153282343Y-66917657D01*
X153232550Y-66876794D01*
X153175743Y-66846430D01*
X153114103Y-66827732D01*
X153050000Y-66821418D01*
X151350000Y-66821418D01*
X151285897Y-66827732D01*
X151224257Y-66846430D01*
X151167450Y-66876794D01*
X151117657Y-66917657D01*
X151076794Y-66967450D01*
X151046430Y-67024257D01*
X151027732Y-67085897D01*
X151021418Y-67150000D01*
X151021418Y-68850000D01*
X151027732Y-68914103D01*
X151046430Y-68975743D01*
X151076794Y-69032550D01*
X151117657Y-69082343D01*
X151167450Y-69123206D01*
X151224257Y-69153570D01*
X151285897Y-69172268D01*
X151350000Y-69178582D01*
X151621565Y-69178582D01*
X151433080Y-69268359D01*
X151199731Y-69442412D01*
X151004822Y-69658645D01*
X150855843Y-69908748D01*
X150771264Y-70147179D01*
X150703044Y-69982481D01*
X150574236Y-69789706D01*
X150410294Y-69625764D01*
X150217519Y-69496956D01*
X150003318Y-69408231D01*
X149775924Y-69363000D01*
X149544076Y-69363000D01*
X149316682Y-69408231D01*
X149102481Y-69496956D01*
X148909706Y-69625764D01*
X148745764Y-69789706D01*
X148616956Y-69982481D01*
X148528231Y-70196682D01*
X148483000Y-70424076D01*
X148297000Y-70424076D01*
X148251769Y-70196682D01*
X148163044Y-69982481D01*
X148034236Y-69789706D01*
X147870294Y-69625764D01*
X147677519Y-69496956D01*
X147463318Y-69408231D01*
X147235924Y-69363000D01*
X147004076Y-69363000D01*
X146776682Y-69408231D01*
X146562481Y-69496956D01*
X146369706Y-69625764D01*
X146205764Y-69789706D01*
X146076956Y-69982481D01*
X145988231Y-70196682D01*
X145943000Y-70424076D01*
X118152000Y-70424076D01*
X118152000Y-67884076D01*
X145943000Y-67884076D01*
X145943000Y-68115924D01*
X145988231Y-68343318D01*
X146076956Y-68557519D01*
X146205764Y-68750294D01*
X146369706Y-68914236D01*
X146562481Y-69043044D01*
X146776682Y-69131769D01*
X147004076Y-69177000D01*
X147235924Y-69177000D01*
X147463318Y-69131769D01*
X147677519Y-69043044D01*
X147870294Y-68914236D01*
X148034236Y-68750294D01*
X148163044Y-68557519D01*
X148251769Y-68343318D01*
X148297000Y-68115924D01*
X148297000Y-67884076D01*
X148483000Y-67884076D01*
X148483000Y-68115924D01*
X148528231Y-68343318D01*
X148616956Y-68557519D01*
X148745764Y-68750294D01*
X148909706Y-68914236D01*
X149102481Y-69043044D01*
X149316682Y-69131769D01*
X149544076Y-69177000D01*
X149775924Y-69177000D01*
X150003318Y-69131769D01*
X150217519Y-69043044D01*
X150410294Y-68914236D01*
X150574236Y-68750294D01*
X150703044Y-68557519D01*
X150791769Y-68343318D01*
X150837000Y-68115924D01*
X150837000Y-67884076D01*
X150791769Y-67656682D01*
X150703044Y-67442481D01*
X150574236Y-67249706D01*
X150410294Y-67085764D01*
X150217519Y-66956956D01*
X150003318Y-66868231D01*
X149775924Y-66823000D01*
X149544076Y-66823000D01*
X149316682Y-66868231D01*
X149102481Y-66956956D01*
X148909706Y-67085764D01*
X148745764Y-67249706D01*
X148616956Y-67442481D01*
X148528231Y-67656682D01*
X148483000Y-67884076D01*
X148297000Y-67884076D01*
X148251769Y-67656682D01*
X148163044Y-67442481D01*
X148034236Y-67249706D01*
X147870294Y-67085764D01*
X147677519Y-66956956D01*
X147463318Y-66868231D01*
X147235924Y-66823000D01*
X147004076Y-66823000D01*
X146776682Y-66868231D01*
X146562481Y-66956956D01*
X146369706Y-67085764D01*
X146205764Y-67249706D01*
X146076956Y-67442481D01*
X145988231Y-67656682D01*
X145943000Y-67884076D01*
X118152000Y-67884076D01*
X118152000Y-62855207D01*
X132073000Y-62855207D01*
X132073000Y-63234793D01*
X132147053Y-63607085D01*
X132292315Y-63957777D01*
X132503201Y-64273391D01*
X132771609Y-64541799D01*
X133087223Y-64752685D01*
X133437915Y-64897947D01*
X133810207Y-64972000D01*
X134189793Y-64972000D01*
X134562085Y-64897947D01*
X134912777Y-64752685D01*
X135228391Y-64541799D01*
X135496799Y-64273391D01*
X135707685Y-63957777D01*
X135852947Y-63607085D01*
X135927000Y-63234793D01*
X135927000Y-62855207D01*
X135852947Y-62482915D01*
X135707685Y-62132223D01*
X135496799Y-61816609D01*
X135228391Y-61548201D01*
X134912777Y-61337315D01*
X134562085Y-61192053D01*
X134189793Y-61118000D01*
X133810207Y-61118000D01*
X133437915Y-61192053D01*
X133087223Y-61337315D01*
X132771609Y-61548201D01*
X132503201Y-61816609D01*
X132292315Y-62132223D01*
X132147053Y-62482915D01*
X132073000Y-62855207D01*
X118152000Y-62855207D01*
X118152000Y-54935891D01*
X118194745Y-55039087D01*
X118504125Y-55502108D01*
X118897892Y-55895875D01*
X119360913Y-56205255D01*
X119875394Y-56418360D01*
X120421565Y-56527000D01*
X120978435Y-56527000D01*
X121524606Y-56418360D01*
X122039087Y-56205255D01*
X122502108Y-55895875D01*
X122895875Y-55502108D01*
X123167605Y-55095433D01*
X131923000Y-55095433D01*
X131923000Y-55504567D01*
X132002818Y-55905839D01*
X132159386Y-56283829D01*
X132386689Y-56624011D01*
X132675989Y-56913311D01*
X133016171Y-57140614D01*
X133394161Y-57297182D01*
X133795433Y-57377000D01*
X134204567Y-57377000D01*
X134605839Y-57297182D01*
X134983829Y-57140614D01*
X135324011Y-56913311D01*
X135613311Y-56624011D01*
X135840614Y-56283829D01*
X135997182Y-55905839D01*
X136077000Y-55504567D01*
X136077000Y-55095433D01*
X135997182Y-54694161D01*
X135840614Y-54316171D01*
X135613311Y-53975989D01*
X135324011Y-53686689D01*
X134983829Y-53459386D01*
X134605839Y-53302818D01*
X134204567Y-53223000D01*
X133795433Y-53223000D01*
X133394161Y-53302818D01*
X133016171Y-53459386D01*
X132675989Y-53686689D01*
X132386689Y-53975989D01*
X132159386Y-54316171D01*
X132002818Y-54694161D01*
X131923000Y-55095433D01*
X123167605Y-55095433D01*
X123205255Y-55039087D01*
X123418360Y-54524606D01*
X123527000Y-53978435D01*
X123527000Y-53421565D01*
X123418360Y-52875394D01*
X123205255Y-52360913D01*
X122895875Y-51897892D01*
X122502108Y-51504125D01*
X122039087Y-51194745D01*
X121935891Y-51152000D01*
X164664109Y-51152000D01*
X164560913Y-51194745D01*
G37*
G04 #@! TD.AperFunction*
M02*
