G04 #@! TF.GenerationSoftware,KiCad,Pcbnew,(5.1.9-0-10_14)*
G04 #@! TF.CreationDate,2022-03-15T11:33:21-06:00*
G04 #@! TF.ProjectId,Full_Res_Board,46756c6c-5f52-4657-935f-426f6172642e,rev?*
G04 #@! TF.SameCoordinates,Original*
G04 #@! TF.FileFunction,Soldermask,Top*
G04 #@! TF.FilePolarity,Negative*
%FSLAX46Y46*%
G04 Gerber Fmt 4.6, Leading zero omitted, Abs format (unit mm)*
G04 Created by KiCad (PCBNEW (5.1.9-0-10_14)) date 2022-03-15 11:33:21*
%MOMM*%
%LPD*%
G01*
G04 APERTURE LIST*
%ADD10C,2.200000*%
%ADD11R,2.200000X2.200000*%
%ADD12C,0.800000*%
%ADD13C,5.000000*%
%ADD14C,3.200000*%
%ADD15R,3.500000X3.500000*%
%ADD16C,3.500000*%
%ADD17O,1.700000X1.700000*%
%ADD18R,1.700000X1.700000*%
%ADD19R,1.750000X1.800000*%
%ADD20R,0.550000X1.600000*%
%ADD21R,1.600000X0.550000*%
%ADD22O,3.500000X2.200000*%
%ADD23O,2.500000X1.500000*%
%ADD24R,2.500000X1.500000*%
%ADD25C,1.700000*%
%ADD26R,0.800000X1.500000*%
%ADD27R,1.450000X2.000000*%
%ADD28C,1.100000*%
%ADD29C,10.200000*%
%ADD30R,3.500000X3.300000*%
G04 APERTURE END LIST*
D10*
X164300000Y-75740000D03*
X164300000Y-78280000D03*
X164300000Y-80820000D03*
X164300000Y-83360000D03*
X164300000Y-85900000D03*
D11*
X164300000Y-88440000D03*
D12*
X122025825Y-127574175D03*
X120700000Y-127025000D03*
X119374175Y-127574175D03*
X118825000Y-128900000D03*
X119374175Y-130225825D03*
X120700000Y-130775000D03*
X122025825Y-130225825D03*
X122575000Y-128900000D03*
D13*
X120700000Y-128900000D03*
D12*
X122025825Y-52374175D03*
X120700000Y-51825000D03*
X119374175Y-52374175D03*
X118825000Y-53700000D03*
X119374175Y-55025825D03*
X120700000Y-55575000D03*
X122025825Y-55025825D03*
X122575000Y-53700000D03*
D13*
X120700000Y-53700000D03*
D12*
X167225825Y-52374175D03*
X165900000Y-51825000D03*
X164574175Y-52374175D03*
X164025000Y-53700000D03*
X164574175Y-55025825D03*
X165900000Y-55575000D03*
X167225825Y-55025825D03*
X167775000Y-53700000D03*
D13*
X165900000Y-53700000D03*
D12*
X167225825Y-127574175D03*
X165900000Y-127025000D03*
X164574175Y-127574175D03*
X164025000Y-128900000D03*
X164574175Y-130225825D03*
X165900000Y-130775000D03*
X167225825Y-130225825D03*
X167775000Y-128900000D03*
D13*
X165900000Y-128900000D03*
D14*
X134000000Y-63045000D03*
X134000000Y-118655000D03*
D15*
X134000000Y-127300000D03*
D16*
X134000000Y-55300000D03*
D17*
X121800000Y-75740000D03*
X121800000Y-78280000D03*
X121800000Y-80820000D03*
X121800000Y-83360000D03*
X121800000Y-85900000D03*
X121800000Y-88440000D03*
X121800000Y-90980000D03*
X121800000Y-93520000D03*
D18*
X121800000Y-96060000D03*
D17*
X120800000Y-109800000D03*
X120800000Y-112340000D03*
X120800000Y-114880000D03*
X120800000Y-117420000D03*
X120800000Y-119960000D03*
D18*
X120800000Y-122500000D03*
D19*
X166225000Y-64600000D03*
X162975000Y-64600000D03*
G36*
G01*
X162275000Y-109500000D02*
X160525000Y-109500000D01*
G75*
G02*
X159900000Y-108875000I0J625000D01*
G01*
X159900000Y-107625000D01*
G75*
G02*
X160525000Y-107000000I625000J0D01*
G01*
X162275000Y-107000000D01*
G75*
G02*
X162900000Y-107625000I0J-625000D01*
G01*
X162900000Y-108875000D01*
G75*
G02*
X162275000Y-109500000I-625000J0D01*
G01*
G37*
G36*
G01*
X162275000Y-116000000D02*
X160525000Y-116000000D01*
G75*
G02*
X159900000Y-115375000I0J625000D01*
G01*
X159900000Y-114125000D01*
G75*
G02*
X160525000Y-113500000I625000J0D01*
G01*
X162275000Y-113500000D01*
G75*
G02*
X162900000Y-114125000I0J-625000D01*
G01*
X162900000Y-115375000D01*
G75*
G02*
X162275000Y-116000000I-625000J0D01*
G01*
G37*
G36*
G01*
X164155000Y-71200000D02*
X164455000Y-71200000D01*
G75*
G02*
X164605000Y-71350000I0J-150000D01*
G01*
X164605000Y-73000000D01*
G75*
G02*
X164455000Y-73150000I-150000J0D01*
G01*
X164155000Y-73150000D01*
G75*
G02*
X164005000Y-73000000I0J150000D01*
G01*
X164005000Y-71350000D01*
G75*
G02*
X164155000Y-71200000I150000J0D01*
G01*
G37*
G36*
G01*
X162885000Y-71200000D02*
X163185000Y-71200000D01*
G75*
G02*
X163335000Y-71350000I0J-150000D01*
G01*
X163335000Y-73000000D01*
G75*
G02*
X163185000Y-73150000I-150000J0D01*
G01*
X162885000Y-73150000D01*
G75*
G02*
X162735000Y-73000000I0J150000D01*
G01*
X162735000Y-71350000D01*
G75*
G02*
X162885000Y-71200000I150000J0D01*
G01*
G37*
G36*
G01*
X161615000Y-71200000D02*
X161915000Y-71200000D01*
G75*
G02*
X162065000Y-71350000I0J-150000D01*
G01*
X162065000Y-73000000D01*
G75*
G02*
X161915000Y-73150000I-150000J0D01*
G01*
X161615000Y-73150000D01*
G75*
G02*
X161465000Y-73000000I0J150000D01*
G01*
X161465000Y-71350000D01*
G75*
G02*
X161615000Y-71200000I150000J0D01*
G01*
G37*
G36*
G01*
X160345000Y-71200000D02*
X160645000Y-71200000D01*
G75*
G02*
X160795000Y-71350000I0J-150000D01*
G01*
X160795000Y-73000000D01*
G75*
G02*
X160645000Y-73150000I-150000J0D01*
G01*
X160345000Y-73150000D01*
G75*
G02*
X160195000Y-73000000I0J150000D01*
G01*
X160195000Y-71350000D01*
G75*
G02*
X160345000Y-71200000I150000J0D01*
G01*
G37*
G36*
G01*
X160345000Y-66250000D02*
X160645000Y-66250000D01*
G75*
G02*
X160795000Y-66400000I0J-150000D01*
G01*
X160795000Y-68050000D01*
G75*
G02*
X160645000Y-68200000I-150000J0D01*
G01*
X160345000Y-68200000D01*
G75*
G02*
X160195000Y-68050000I0J150000D01*
G01*
X160195000Y-66400000D01*
G75*
G02*
X160345000Y-66250000I150000J0D01*
G01*
G37*
G36*
G01*
X161615000Y-66250000D02*
X161915000Y-66250000D01*
G75*
G02*
X162065000Y-66400000I0J-150000D01*
G01*
X162065000Y-68050000D01*
G75*
G02*
X161915000Y-68200000I-150000J0D01*
G01*
X161615000Y-68200000D01*
G75*
G02*
X161465000Y-68050000I0J150000D01*
G01*
X161465000Y-66400000D01*
G75*
G02*
X161615000Y-66250000I150000J0D01*
G01*
G37*
G36*
G01*
X162885000Y-66250000D02*
X163185000Y-66250000D01*
G75*
G02*
X163335000Y-66400000I0J-150000D01*
G01*
X163335000Y-68050000D01*
G75*
G02*
X163185000Y-68200000I-150000J0D01*
G01*
X162885000Y-68200000D01*
G75*
G02*
X162735000Y-68050000I0J150000D01*
G01*
X162735000Y-66400000D01*
G75*
G02*
X162885000Y-66250000I150000J0D01*
G01*
G37*
G36*
G01*
X164155000Y-66250000D02*
X164455000Y-66250000D01*
G75*
G02*
X164605000Y-66400000I0J-150000D01*
G01*
X164605000Y-68050000D01*
G75*
G02*
X164455000Y-68200000I-150000J0D01*
G01*
X164155000Y-68200000D01*
G75*
G02*
X164005000Y-68050000I0J150000D01*
G01*
X164005000Y-66400000D01*
G75*
G02*
X164155000Y-66250000I150000J0D01*
G01*
G37*
D20*
X155500000Y-115650000D03*
X154700000Y-115650000D03*
X153900000Y-115650000D03*
X153100000Y-115650000D03*
X152300000Y-115650000D03*
X151500000Y-115650000D03*
X150700000Y-115650000D03*
X149900000Y-115650000D03*
D21*
X148450000Y-114200000D03*
X148450000Y-113400000D03*
X148450000Y-112600000D03*
X148450000Y-111800000D03*
X148450000Y-111000000D03*
X148450000Y-110200000D03*
X148450000Y-109400000D03*
X148450000Y-108600000D03*
D20*
X149900000Y-107150000D03*
X150700000Y-107150000D03*
X151500000Y-107150000D03*
X152300000Y-107150000D03*
X153100000Y-107150000D03*
X153900000Y-107150000D03*
X154700000Y-107150000D03*
X155500000Y-107150000D03*
D21*
X156950000Y-108600000D03*
X156950000Y-109400000D03*
X156950000Y-110200000D03*
X156950000Y-111000000D03*
X156950000Y-111800000D03*
X156950000Y-112600000D03*
X156950000Y-113400000D03*
X156950000Y-114200000D03*
D22*
X148800000Y-120400000D03*
X148800000Y-128600000D03*
D23*
X148800000Y-122500000D03*
X148800000Y-124500000D03*
D24*
X148800000Y-126500000D03*
D25*
X163100000Y-124400000D03*
X156600000Y-124400000D03*
X163100000Y-119900000D03*
X156600000Y-119900000D03*
G36*
G01*
X165100000Y-121100000D02*
X165900000Y-121100000D01*
G75*
G02*
X166150000Y-121350000I0J-250000D01*
G01*
X166150000Y-122175000D01*
G75*
G02*
X165900000Y-122425000I-250000J0D01*
G01*
X165100000Y-122425000D01*
G75*
G02*
X164850000Y-122175000I0J250000D01*
G01*
X164850000Y-121350000D01*
G75*
G02*
X165100000Y-121100000I250000J0D01*
G01*
G37*
G36*
G01*
X165100000Y-119175000D02*
X165900000Y-119175000D01*
G75*
G02*
X166150000Y-119425000I0J-250000D01*
G01*
X166150000Y-120250000D01*
G75*
G02*
X165900000Y-120500000I-250000J0D01*
G01*
X165100000Y-120500000D01*
G75*
G02*
X164850000Y-120250000I0J250000D01*
G01*
X164850000Y-119425000D01*
G75*
G02*
X165100000Y-119175000I250000J0D01*
G01*
G37*
G36*
G01*
X166850001Y-71300000D02*
X165949999Y-71300000D01*
G75*
G02*
X165700000Y-71050001I0J249999D01*
G01*
X165700000Y-70524999D01*
G75*
G02*
X165949999Y-70275000I249999J0D01*
G01*
X166850001Y-70275000D01*
G75*
G02*
X167100000Y-70524999I0J-249999D01*
G01*
X167100000Y-71050001D01*
G75*
G02*
X166850001Y-71300000I-249999J0D01*
G01*
G37*
G36*
G01*
X166850001Y-73125000D02*
X165949999Y-73125000D01*
G75*
G02*
X165700000Y-72875001I0J249999D01*
G01*
X165700000Y-72349999D01*
G75*
G02*
X165949999Y-72100000I249999J0D01*
G01*
X166850001Y-72100000D01*
G75*
G02*
X167100000Y-72349999I0J-249999D01*
G01*
X167100000Y-72875001D01*
G75*
G02*
X166850001Y-73125000I-249999J0D01*
G01*
G37*
D17*
X147120000Y-70540000D03*
X147120000Y-68000000D03*
X149660000Y-70540000D03*
X149660000Y-68000000D03*
X152200000Y-70540000D03*
D18*
X152200000Y-68000000D03*
D26*
X149300000Y-95350000D03*
X150400000Y-95350000D03*
X151500000Y-95350000D03*
X152600000Y-95350000D03*
X153700000Y-95350000D03*
X154800000Y-95350000D03*
X155900000Y-95350000D03*
X157000000Y-95350000D03*
D27*
X159375000Y-101050000D03*
X145625000Y-101050000D03*
X145625000Y-92750000D03*
X159375000Y-92750000D03*
D28*
X166840000Y-92660000D03*
D10*
X164300000Y-92660000D03*
D28*
X166840000Y-95200000D03*
D11*
X164300000Y-95200000D03*
G36*
G01*
X166875000Y-67550000D02*
X165925000Y-67550000D01*
G75*
G02*
X165675000Y-67300000I0J250000D01*
G01*
X165675000Y-66800000D01*
G75*
G02*
X165925000Y-66550000I250000J0D01*
G01*
X166875000Y-66550000D01*
G75*
G02*
X167125000Y-66800000I0J-250000D01*
G01*
X167125000Y-67300000D01*
G75*
G02*
X166875000Y-67550000I-250000J0D01*
G01*
G37*
G36*
G01*
X166875000Y-69450000D02*
X165925000Y-69450000D01*
G75*
G02*
X165675000Y-69200000I0J250000D01*
G01*
X165675000Y-68700000D01*
G75*
G02*
X165925000Y-68450000I250000J0D01*
G01*
X166875000Y-68450000D01*
G75*
G02*
X167125000Y-68700000I0J-250000D01*
G01*
X167125000Y-69200000D01*
G75*
G02*
X166875000Y-69450000I-250000J0D01*
G01*
G37*
G36*
G01*
X165425000Y-109650000D02*
X166375000Y-109650000D01*
G75*
G02*
X166625000Y-109900000I0J-250000D01*
G01*
X166625000Y-110400000D01*
G75*
G02*
X166375000Y-110650000I-250000J0D01*
G01*
X165425000Y-110650000D01*
G75*
G02*
X165175000Y-110400000I0J250000D01*
G01*
X165175000Y-109900000D01*
G75*
G02*
X165425000Y-109650000I250000J0D01*
G01*
G37*
G36*
G01*
X165425000Y-107750000D02*
X166375000Y-107750000D01*
G75*
G02*
X166625000Y-108000000I0J-250000D01*
G01*
X166625000Y-108500000D01*
G75*
G02*
X166375000Y-108750000I-250000J0D01*
G01*
X165425000Y-108750000D01*
G75*
G02*
X165175000Y-108500000I0J250000D01*
G01*
X165175000Y-108000000D01*
G75*
G02*
X165425000Y-107750000I250000J0D01*
G01*
G37*
G36*
G01*
X166375000Y-113350000D02*
X165425000Y-113350000D01*
G75*
G02*
X165175000Y-113100000I0J250000D01*
G01*
X165175000Y-112600000D01*
G75*
G02*
X165425000Y-112350000I250000J0D01*
G01*
X166375000Y-112350000D01*
G75*
G02*
X166625000Y-112600000I0J-250000D01*
G01*
X166625000Y-113100000D01*
G75*
G02*
X166375000Y-113350000I-250000J0D01*
G01*
G37*
G36*
G01*
X166375000Y-115250000D02*
X165425000Y-115250000D01*
G75*
G02*
X165175000Y-115000000I0J250000D01*
G01*
X165175000Y-114500000D01*
G75*
G02*
X165425000Y-114250000I250000J0D01*
G01*
X166375000Y-114250000D01*
G75*
G02*
X166625000Y-114500000I0J-250000D01*
G01*
X166625000Y-115000000D01*
G75*
G02*
X166375000Y-115250000I-250000J0D01*
G01*
G37*
D29*
X154500000Y-58500000D03*
D30*
X146600000Y-58500000D03*
X162400000Y-58500000D03*
M02*
